<svg width="48" height="49" viewBox="0 0 48 49" fill="none" xmlns="http://www.w3.org/2000/svg">
<g id="&#195;&#173;cono">
<path id="Vector" d="M45.1037 15.9846C45.6828 15.155 46 14.1685 46 13.1452C46 10.4058 43.7709 8.17742 41.0323 8.17742C40.0125 8.17742 39.0246 8.49181 38.1935 9.07374C37.3625 8.49181 36.3746 8.17742 35.3548 8.17742C34.3322 8.17742 33.345 8.49464 32.5154 9.07374C31.7099 8.51026 30.7327 8.17742 29.6774 8.17742C28.6576 8.17742 27.6697 8.49252 26.8387 9.07374C26.0077 8.49252 25.0198 8.17742 24 8.17742C22.9447 8.17742 21.9675 8.51026 21.162 9.07374C20.3324 8.49464 19.3459 8.17742 18.3226 8.17742C17.3028 8.17742 16.3156 8.49181 15.4839 9.07303V4.93703L11.4224 2.5H9.80645V9.07303C8.48361 9.99703 7.67742 11.5214 7.67742 13.1452C7.67742 15.8845 9.90652 18.1129 12.6452 18.1129C13.665 18.1129 14.6528 17.7978 15.4839 17.2166C16.3149 17.7978 17.3028 18.1129 18.3226 18.1129C19.3615 18.1129 20.3459 17.7857 21.1613 17.2173C21.9909 17.7957 22.9774 18.1129 24 18.1129C25.0198 18.1129 26.0077 17.7978 26.8387 17.2166C27.6697 17.7978 28.6576 18.1129 29.6774 18.1129C30.7001 18.1129 31.6865 17.7957 32.5154 17.2173C33.3315 17.7857 34.3159 18.1129 35.3548 18.1129C35.6167 18.1129 35.8757 18.0881 36.1319 18.0469C36.0922 18.3024 36.0645 18.56 36.0645 18.8226C36.0645 19.0852 36.0894 19.3456 36.1305 19.6018C34.8808 19.4145 33.5707 19.7097 32.5204 20.4321C31.7142 19.8672 30.7348 19.5323 29.6774 19.5323C28.6576 19.5323 27.6697 19.8474 26.8387 20.4286C26.0077 19.8474 25.0198 19.5323 24 19.5323C22.9774 19.5323 21.9902 19.8495 21.1606 20.4286C20.3551 19.8651 19.3779 19.5323 18.3226 19.5323C17.2836 19.5323 16.2993 19.8594 15.4839 20.4279C14.6543 19.8495 13.6678 19.5323 12.6452 19.5323C11.6254 19.5323 10.6375 19.8466 9.80645 20.4286C8.97542 19.8466 7.98755 19.5323 6.96774 19.5323C4.2291 19.5323 2 21.7606 2 24.5C2 25.5553 2.32716 26.5375 2.89065 27.3465C2.3151 28.1747 2 29.1583 2 30.1774C2 31.2001 2.31723 32.1872 2.89632 33.0168C2.33355 33.8223 2 34.7995 2 35.8548C2 38.5935 4.2291 40.8226 6.96774 40.8226C8.00813 40.8226 8.99174 40.4947 9.80645 39.927C10.6354 40.5054 11.6218 40.8226 12.6452 40.8226C13.665 40.8226 14.6528 40.5082 15.4839 39.9263C16.3149 40.5082 17.3028 40.8226 18.3226 40.8226C19.363 40.8226 20.3466 40.4947 21.162 39.927C21.9909 40.5054 22.9781 40.8226 24 40.8226C25.0234 40.8226 26.0105 40.5046 26.8408 39.9248C27.6584 40.4947 28.6441 40.8226 29.6774 40.8226C30.6972 40.8226 31.6851 40.5082 32.5161 39.9263V44.063L36.5776 46.5H38.1935V39.927C39.5164 39.003 40.3226 37.4793 40.3226 35.8548C40.3226 33.1162 38.0935 30.8871 35.3548 30.8871C34.335 30.8871 33.3472 31.2015 32.5161 31.7834C31.6851 31.2015 30.6972 30.8871 29.6774 30.8871C28.6548 30.8871 27.6676 31.205 26.838 31.7834C26.0325 31.2206 25.0553 30.8871 24 30.8871C22.9774 30.8871 21.9909 31.2043 21.1613 31.7827C20.3324 31.2043 19.3452 30.8871 18.3226 30.8871C17.3028 30.8871 16.3149 31.2015 15.4839 31.7834C14.6528 31.2015 13.665 30.8871 12.6452 30.8871C12.3805 30.8871 12.1221 30.9141 11.8681 30.9538C11.9078 30.699 11.9355 30.4407 11.9355 30.1774C11.9355 29.9134 11.9085 29.6551 11.8681 29.3996C12.1235 29.4401 12.3819 29.4677 12.6452 29.4677C13.7005 29.4677 14.6777 29.1342 15.4832 28.5714C16.3121 29.1498 17.2992 29.4677 18.3226 29.4677C19.3452 29.4677 20.331 29.1505 21.1606 28.5721C21.9774 29.1413 22.9639 29.4677 24 29.4677C25.0198 29.4677 26.0077 29.1534 26.8387 28.5714C27.6697 29.1534 28.6576 29.4677 29.6774 29.4677C30.7001 29.4677 31.6865 29.1505 32.5161 28.5721C33.3315 29.1406 34.3159 29.4677 35.3548 29.4677C36.4101 29.4677 37.3874 29.1342 38.1928 28.5714C39.0224 29.1505 40.0089 29.4677 41.0323 29.4677C43.7709 29.4677 46 27.2386 46 24.5C46 23.4802 45.6856 22.4916 45.1037 21.6613C45.6856 20.831 46 19.8424 46 18.8226C46 17.7673 45.6672 16.7901 45.1037 15.9846ZM43.6715 22.1354C44.2577 22.7883 44.5806 23.6285 44.5806 24.5C44.5806 26.4566 42.9888 28.0484 41.0323 28.0484C40.4021 28.0484 39.7924 27.8766 39.2559 27.5651C39.9216 26.7199 40.3226 25.6568 40.3226 24.5H38.9032C38.9032 26.4566 37.3114 28.0484 35.3548 28.0484C33.8539 28.0484 32.5083 27.0981 32.008 25.6837L30.6703 26.1564C30.8534 26.6744 31.1209 27.1443 31.4481 27.5608C30.1614 28.2805 28.4383 28.1492 27.3128 27.1386L26.8387 26.7135L26.3646 27.1393C25.711 27.7255 24.8715 28.0484 24 28.0484C22.5161 28.0484 21.1762 27.113 20.6674 25.7206L19.3339 26.2089C19.5155 26.7057 19.7746 27.1599 20.0918 27.5623C19.0117 28.1641 17.6299 28.1641 16.5505 27.5601C17.2134 26.7156 17.6129 25.6546 17.6129 24.5H16.1935C16.1935 26.4566 14.6017 28.0484 12.6452 28.0484C12.1853 28.0484 11.7439 27.9568 11.3252 27.7865C10.9249 27.057 10.3401 26.4289 9.60632 25.9676L8.85123 27.1691C9.89374 27.8241 10.5161 28.949 10.5161 30.1774C10.5161 30.638 10.4253 31.0823 10.255 31.5024C8.72064 32.3483 7.67742 33.982 7.67742 35.8548H9.09677C9.09677 33.8983 10.6886 32.3064 12.6452 32.3064C13.5166 32.3064 14.3562 32.6294 15.0098 33.2155L15.4839 33.6414L15.9579 33.2155C17.0849 32.2057 18.808 32.0744 20.0946 32.7947C19.4155 33.6626 19.0323 34.7378 19.0323 35.8548H20.4516C20.4516 34.8478 20.8817 33.8848 21.6325 33.2113C22.2833 32.6279 23.1243 32.3064 24 32.3064C25.9566 32.3064 27.5484 33.8983 27.5484 35.8548H28.9677C28.9677 34.7002 28.5682 33.6392 27.9054 32.7947C29.1927 32.0751 30.9158 32.2057 32.0421 33.2155L32.5161 33.6414L32.9902 33.2155C33.6438 32.6294 34.4834 32.3064 35.3548 32.3064C37.3114 32.3064 38.9032 33.8983 38.9032 35.8548C38.9032 37.1145 38.2234 38.2912 37.1283 38.9242L36.7742 39.1293V44.9628L33.9355 43.2596V39.13L33.5814 38.9249C33.372 38.8035 33.1733 38.6588 32.9902 38.4948L32.5161 38.0683L32.0421 38.4941C31.3885 39.0803 30.5489 39.4032 29.6774 39.4032C28.2112 39.4032 26.8777 38.4828 26.3583 37.1117L25.0305 37.6148C25.2107 38.091 25.4619 38.5275 25.7685 38.9157C24.6884 39.5175 23.3081 39.5175 22.2294 38.9143C22.5615 38.4913 22.8326 38.0137 23.0157 37.4871L21.6751 37.0215C21.179 38.4459 19.8321 39.4032 18.3226 39.4032C17.4511 39.4032 16.6115 39.0803 15.9579 38.4941L15.4839 38.0683L15.0098 38.4941C13.8835 39.5047 12.1605 39.636 10.8738 38.9157C11.2059 38.4934 11.4763 38.0165 11.6594 37.4899L10.3188 37.023C9.82277 38.4466 8.47652 39.4032 6.96774 39.4032C5.01116 39.4032 3.41935 37.8114 3.41935 35.8548C3.41935 33.8983 5.01116 32.3064 6.96774 32.3064V30.8871C5.81097 30.8871 4.74787 31.2881 3.90265 31.9537C3.59181 31.4172 3.41935 30.8076 3.41935 30.1774C3.41935 29.5508 3.59039 28.944 3.89839 28.4096C4.53923 28.9121 5.30994 29.2641 6.16581 29.4039L6.3929 28.0023C4.67052 27.7219 3.41935 26.2494 3.41935 24.5C3.41935 22.5434 5.01116 20.9516 6.96774 20.9516C7.83852 20.9516 8.67806 21.2745 9.3331 21.8607L9.80645 22.2851L10.2798 21.8607C11.4082 20.8501 13.1299 20.7195 14.4158 21.4392C14.0886 21.8557 13.8211 22.3255 13.638 22.8429L14.9757 23.3163C15.4761 21.9019 16.8216 20.9516 18.3226 20.9516C20.2792 20.9516 21.871 22.5434 21.871 24.5H23.2903C23.2903 23.3454 22.8908 22.2844 22.2279 21.4406C23.5146 20.7203 25.237 20.8501 26.3654 21.8614L26.8387 22.2851L27.3121 21.8607C27.9671 21.2745 28.8066 20.9516 29.6774 20.9516C31.634 20.9516 33.2258 22.5434 33.2258 24.5H34.6452C34.6452 23.3454 34.2456 22.2844 33.5828 21.4399C34.5231 20.9055 35.6891 20.8168 36.6926 21.2227C36.8728 21.5463 37.085 21.8543 37.337 22.1346L38.393 21.1865C37.8068 20.5343 37.4839 19.6941 37.4839 18.8226C37.4839 18.3585 37.5768 17.9121 37.7486 17.4884C38.0743 17.3081 38.3844 17.0945 38.6669 16.8412L37.7202 15.7845C37.0652 16.3706 36.2256 16.6935 35.3548 16.6935C33.8539 16.6935 32.5083 15.7433 32.008 14.3289L30.6703 14.8023C30.8534 15.3196 31.1202 15.7894 31.4474 16.206C30.16 16.9256 28.4397 16.795 27.3114 15.7845L26.8387 15.3601L26.3654 15.7845C25.2377 16.7943 23.5174 16.9256 22.2294 16.206C22.5565 15.7901 22.8234 15.3203 23.0065 14.8037L21.6687 14.3296C21.1684 15.7433 19.8228 16.6935 18.3226 16.6935C17.4518 16.6935 16.6123 16.3706 15.9572 15.7845L15.4839 15.3601L15.0105 15.7845C14.3555 16.3706 13.5159 16.6935 12.6452 16.6935C10.6886 16.6935 9.09677 15.1017 9.09677 13.1452C9.09677 11.8862 9.77665 10.7095 10.8717 10.0751L11.2258 9.87V4.03716L14.0645 5.74039V9.87L14.4186 10.0751C14.6273 10.1957 14.826 10.3405 15.0098 10.5059L15.4839 10.9303L15.9572 10.5059C17.0863 9.49529 18.808 9.36471 20.0946 10.085C19.4318 10.9295 19.0323 11.9905 19.0323 13.1452H20.4516C20.4516 11.1886 22.0434 9.59677 24 9.59677C24.8708 9.59677 25.7103 9.91968 26.3654 10.5059L26.8387 10.9303L27.3121 10.5059C27.9671 9.91968 28.8066 9.59677 29.6774 9.59677C31.634 9.59677 33.2258 11.1886 33.2258 13.1452H34.6452C34.6452 11.9905 34.2456 10.9295 33.5828 10.0857C34.8708 9.36542 36.5911 9.496 37.7202 10.5066L38.1935 10.9303L38.6669 10.5059C39.3219 9.91968 40.1615 9.59677 41.0323 9.59677C42.9888 9.59677 44.5806 11.1886 44.5806 13.1452C44.5806 13.7754 44.4089 14.385 44.0974 14.9215C43.2521 14.2558 42.189 13.8548 41.0323 13.8548V15.2742C42.9888 15.2742 44.5806 16.866 44.5806 18.8226C44.5806 19.6941 44.2577 20.5343 43.6715 21.1872L43.2457 21.6613L43.6715 22.1354Z" fill="#FAFAFA"/>
</g>
</svg>
