<svg width="48" height="49" viewBox="0 0 48 49" fill="none" xmlns="http://www.w3.org/2000/svg">
<path d="M21.5833 25.0345C20.5666 23.2446 19.0423 21.7896 17.2016 20.854C17.3527 19.7828 17.724 18.6281 18.172 17.4224C20.1932 18.4428 21.5833 20.5345 21.5833 22.9468V25.0345ZM17.8908 26.2236C17.5252 24.924 17.2219 23.6261 17.1457 22.3785C19.5301 23.809 21.2118 26.2942 21.5268 29.1887C20.6352 27.8791 19.3713 26.8404 17.8908 26.2236ZM17.0511 28.1883C18.2247 32.0696 19.2389 35.4204 16.3801 37.9659C14.5219 39.6213 12.5273 39.2494 11.1835 38.6452C7.09278 36.811 2.86397 30.0088 2.86397 21.804C2.86397 13.5992 6.53262 7.86406 10.1709 5.80509C11.0445 5.30517 12.1936 4.8587 13.4856 4.8587C14.4257 4.8587 15.4424 5.09383 16.4823 5.72085C20.3275 8.02328 18.9639 11.5629 17.3831 15.6609L17.3807 15.6648C16.7438 15.4883 16.0787 15.3899 15.3859 15.3899C14.2603 15.3899 13.3428 14.4718 13.3428 13.345C13.3428 12.9692 13.0374 12.6638 12.6616 12.6638C12.2857 12.6638 11.9788 12.9692 11.9788 13.345C11.9788 14.1143 12.2455 14.8174 12.6778 15.3899H10.7735C10.3977 15.3899 10.0923 15.6932 10.0923 16.0709C10.0923 16.4486 10.3977 16.7521 10.7735 16.7521H15.3859C15.9079 16.7521 16.4128 16.8222 16.8946 16.9446C16.4768 18.076 16.101 19.2087 15.906 20.3039C14.831 19.9303 13.6841 19.7173 12.4852 19.7173H8.11944C7.74153 19.7173 7.4367 20.0247 7.4367 20.3983C7.4367 20.7719 7.74153 21.0795 8.11944 21.0795H9.90721C9.56443 21.5834 9.36046 22.19 9.36046 22.8409C9.36046 23.219 9.66622 23.524 10.0421 23.524C10.4179 23.524 10.7229 23.2188 10.7229 22.8409C10.7229 21.8726 11.5144 21.0795 12.4852 21.0795C13.642 21.0795 14.7449 21.306 15.7655 21.7043L15.7593 21.8044C15.7593 23.1124 16.0105 24.4364 16.3501 25.752C15.8301 25.6479 15.2936 25.5913 14.7434 25.5913H9.28699C8.9087 25.5913 8.60368 25.8965 8.60368 26.274C8.60368 26.6515 8.9087 26.9575 9.28699 26.9575H11.1127C10.7692 27.4595 10.5667 28.0644 10.5667 28.7152C10.5667 29.0928 10.8717 29.4002 11.2476 29.4002C11.6234 29.4002 11.9303 29.0928 11.9303 28.7152C11.9303 27.745 12.7198 26.9575 13.6901 26.9575H14.7432C15.4516 26.9575 16.1316 27.0655 16.7741 27.2627C16.8664 27.5719 16.9588 27.8833 17.0509 28.1887L17.0511 28.1883ZM18.6585 16.1408C20.2318 12.0646 22.0093 7.44063 17.1837 4.54934C14.8112 3.12702 12.0816 3.15138 9.49738 4.61771C4.71406 7.32373 1.5 14.2342 1.5 21.804C1.5 30.8926 6.20117 37.9055 10.6245 39.8881C11.5671 40.3123 12.4992 40.5231 13.3993 40.5231C14.8112 40.5231 16.1395 40.0028 17.2885 38.9846C20.7234 35.9266 19.604 31.9314 18.431 28.0434C20.3234 29.261 21.5833 31.3829 21.5833 33.7951V41.387C21.5833 41.7645 21.8883 42.0699 22.2666 42.0699C22.6449 42.0699 22.9474 41.7645 22.9474 41.387V22.9468C22.9474 19.9518 21.1914 17.3661 18.6583 16.1406L18.6585 16.1408Z" fill="#FAFAFA"/>
<path d="M36.8166 41.4976C35.471 42.1023 33.4779 42.4719 31.618 40.8166C28.7612 38.2733 29.7735 34.9227 30.9466 31.0429C31.0412 30.736 31.133 30.4244 31.2263 30.1152C31.8667 29.916 32.5479 29.8095 33.255 29.8095H34.31C35.2804 29.8095 36.0693 30.5993 36.0693 31.5714C36.0693 31.9449 36.375 32.2526 36.752 32.2526C37.129 32.2526 37.4336 31.9449 37.4336 31.5714C37.4336 30.9166 37.2308 30.3117 36.8852 29.8095H38.7137C39.0886 29.8095 39.3944 29.5026 39.3944 29.1265C39.3944 28.7505 39.0886 28.4432 38.7137 28.4432H33.2552C32.7049 28.4432 32.1685 28.502 31.6482 28.6043C31.9893 27.2908 32.2391 25.9644 32.2391 24.6567L32.2344 24.5542C33.2533 24.1585 34.3563 23.9353 35.5134 23.9353C36.4853 23.9353 37.2753 24.7228 37.2753 25.6932C37.2753 26.0708 37.5804 26.3782 37.9562 26.3782C38.332 26.3782 38.6389 26.0708 38.6389 25.6932C38.6389 25.0401 38.434 24.4358 38.0905 23.9353H39.8803C40.2562 23.9353 40.5616 23.6301 40.5616 23.2524C40.5616 22.8746 40.2562 22.5691 39.8803 22.5691H35.5133C34.3159 22.5691 33.1687 22.7821 32.0943 23.1557C31.8967 22.061 31.5233 20.9278 31.1035 19.7969C31.5881 19.6762 32.0916 19.6039 32.6125 19.6039H37.2244C37.6026 19.6039 37.908 19.2985 37.908 18.921C37.908 18.5434 37.6026 18.2401 37.2244 18.2401H35.3225C35.7546 17.6696 36.0196 16.9646 36.0196 16.1951C36.0196 15.821 35.7146 15.5143 35.3384 15.5143C34.9622 15.5143 34.6553 15.8212 34.6553 16.1951C34.6553 17.3238 33.7393 18.2401 32.6125 18.2401C31.9215 18.2401 31.2542 18.3425 30.6178 18.5174L30.6153 18.5134C29.0364 14.4149 27.6724 10.8751 31.5156 8.57113C32.5579 7.94827 33.5752 7.71124 34.513 7.71124C35.8045 7.71124 36.9535 8.15885 37.8293 8.6531C41.4677 10.7145 45.1362 16.4639 45.1362 24.6565C45.1362 32.8492 40.9049 39.663 36.817 41.4972L36.8166 41.4976ZM26.4707 32.0418C26.7863 29.149 28.4679 26.6615 30.8521 25.2333C30.7781 26.481 30.4748 27.7786 30.1074 29.0742C28.627 29.6933 27.3646 30.7321 26.4709 32.0418H26.4707ZM26.4167 25.8039C26.4167 23.3853 27.805 21.2961 29.8255 20.2732C30.2733 21.4805 30.645 22.6338 30.7977 23.7066C28.9582 24.6388 27.4315 26.0974 26.4167 27.8869V25.8039ZM38.502 7.46837C35.9186 6.00374 33.1886 5.97994 30.814 7.40019C25.9904 10.293 27.7665 14.9177 29.3412 18.9956C26.8084 20.217 25.0527 22.8046 25.0527 25.8041V44.2399C25.0527 44.618 25.3557 44.9232 25.734 44.9232C26.1123 44.9232 26.4167 44.618 26.4167 44.2399V36.6482C26.4167 34.2355 27.6736 32.1159 29.5665 30.8969C28.393 34.7839 27.2764 38.7799 30.7114 41.8372C31.8588 42.8576 33.1867 43.376 34.6005 43.376C35.4987 43.376 36.4332 43.1653 37.3753 42.7415C41.7971 40.7563 46.5001 33.7452 46.5001 24.6571C46.5001 17.0873 43.2855 10.1785 38.5022 7.46855L38.502 7.46837Z" fill="#FAFAFA"/>
</svg>
