<svg width="48" height="49" viewBox="0 0 48 49" fill="none" xmlns="http://www.w3.org/2000/svg">
<path d="M28.04 23.0257L27.9139 23.6007C27.3875 23.0292 27.1206 22.5161 26.934 21.9555L27.6104 8.82587C28.6498 8.28277 29.1978 7.28479 29.4649 6.45585C29.7686 5.51315 29.7629 4.68034 29.7629 4.68034C29.7627 4.4967 29.6922 4.31914 29.5646 4.18694C28.6907 3.28287 27.2486 2.57916 27.2486 2.57916C27.1482 2.52737 27.0373 2.5 26.9243 2.5C25.5466 2.5 24.6354 3.05321 24.0927 3.55892C24.0376 3.50626 23.9794 3.45299 23.9167 3.40098C23.3658 2.94505 22.4776 2.50002 21.25 2.50007C21.1349 2.50075 21.0222 2.5305 20.9206 2.58465C20.9206 2.58465 19.4854 3.28279 18.6115 4.18687C18.4839 4.31914 18.412 4.49518 18.4119 4.6789C18.4119 4.6789 18.4062 5.51857 18.7099 6.46127C18.9772 7.29091 19.5215 8.28538 20.5616 8.82717L21.2407 21.9817C21.0717 22.6291 20.6547 23.178 20.2636 23.5909C20.2222 23.4036 20.1787 23.2138 20.1319 23.0171C19.5576 20.319 19.698 16.7888 18.8069 14.0039C18.1406 12.0049 16.6335 11.2895 15.436 11.2694C14.2385 11.248 13.2725 11.7558 13.2696 11.7558C10.4015 13.237 7.82139 16.3038 6.33126 18.9118C2.21077 26.016 2.15108 35.0781 2.15108 35.0781C2.15049 35.0909 2.01769 38.3786 2.00001 44.4807C1.99647 45.5901 2.90576 46.5362 4.02634 46.4973C4.96247 46.4648 6.24749 46.3959 7.42412 46.2326C9.63996 45.8427 11.255 44.4975 12.9956 43.7987C14.7362 43.0999 16.4747 42.706 18.5683 42.1135C19.5457 41.8366 20.1663 40.9405 20.1663 39.9389V34.2549C20.1663 33.2128 20.3809 32.3446 20.5904 31.3165C20.7817 30.3782 20.9586 29.316 20.9051 27.9694C21.7031 27.4807 22.3579 26.9578 22.8898 26.4558C23.3872 25.9864 23.7801 25.5394 24.0845 25.1669C24.3891 25.5398 24.7809 25.9855 25.2793 26.4558C25.8107 26.9573 26.4658 27.4819 27.264 27.9707C27.2112 29.3176 27.393 30.3808 27.5842 31.3179C27.7937 32.3447 28.0028 33.209 28.0028 34.2562V39.9402C28.0028 40.9418 28.6289 41.838 29.6064 42.1149C31.6999 42.7074 33.4384 43.1013 35.2418 43.8224C36.9176 44.5053 38.5372 45.8447 40.7505 46.2342C41.9271 46.3977 43.2122 46.4666 44.1483 46.4988C45.2689 46.5378 46.1737 45.5916 46.1705 44.4822C46.1527 38.3802 46.0186 35.0943 46.018 35.0796V35.0582C46.0178 35.0235 45.9504 26.0047 41.8407 18.914C40.3534 16.306 37.7677 13.2393 34.8996 11.7581C34.8996 11.7581 33.9362 11.2501 32.7387 11.2702C31.5412 11.2895 30.0341 12.0058 29.3679 14.0048C28.4752 16.7946 28.6153 20.3338 28.04 23.0257ZM23.0107 4.49053C23.3468 4.7687 23.4459 4.98811 23.4459 4.98811C23.6165 5.34118 24.0409 5.49017 24.3939 5.31933C24.5406 5.24849 24.6519 5.13293 24.7217 4.9985C24.7187 4.99923 25.3073 4.08232 26.8042 3.97773C27.009 4.09223 27.733 4.53916 28.2914 4.99922C28.2807 5.2049 28.288 5.48039 28.114 6.02071C27.9174 6.63084 27.5907 7.21835 27.001 7.54389C26.0696 7.0644 24.91 6.91164 24.0849 6.90634C23.0311 6.88707 22.0646 7.13968 21.1743 7.54389C20.5847 7.21835 20.2579 6.63084 20.0613 6.02071C19.8872 5.48039 19.8947 5.20481 19.8839 4.99922C20.4495 4.53325 21.2025 4.07231 21.3918 3.96662C22.1662 4.00815 22.7016 4.23489 23.0107 4.49053ZM26.1957 8.72894L26.1 10.5779H22.0751L21.9794 8.71091C22.7223 8.43436 23.4831 8.32948 24.0848 8.32561C24.7981 8.28965 25.6152 8.49746 26.1957 8.72894ZM22.1486 11.9984H26.028L25.9116 14.2508H22.2636L22.1486 11.9984ZM7.56237 19.6189C8.93272 17.2205 11.4762 14.2835 13.9227 13.0187C13.9277 13.0166 14.6366 12.6759 15.4099 12.6888C16.1836 12.7017 16.9387 12.9095 17.4528 14.4434C18.2146 16.8313 18.1137 20.3574 18.7473 23.3304C18.85 23.7699 18.9367 24.1728 19.0162 24.5612C18.4362 24.9279 17.7197 25.2808 16.7771 25.5917C16.5514 25.6773 16.3487 25.7668 16.15 25.8613C16.1246 25.4345 16.0687 24.9216 15.9601 24.3575L16.6309 23.318C16.8418 22.9881 16.7457 22.5495 16.4161 22.3381C16.0919 22.1311 15.6626 22.2203 15.4473 22.5363C15.2828 22.1034 15.0811 21.6618 14.836 21.2223L12.6961 17.4774C12.501 17.1405 12.0715 17.0235 11.7328 17.2153C11.3909 17.4088 11.2708 17.8428 11.4653 18.1841L12.168 19.4163C11.9347 19.3651 11.6939 19.3166 11.4556 19.2789C11.0678 19.2177 10.7037 19.483 10.6434 19.8707C10.5853 20.2566 10.8496 20.617 11.2352 20.6773C11.9397 20.7876 12.7501 21.0204 13.1548 21.143C14.034 22.5873 14.6175 24.2751 14.7321 25.915C13.7743 25.5869 12.596 25.4843 11.7328 25.6226C11.5707 25.6502 11.4095 25.6854 11.2505 25.7282C10.6154 25.6693 10.0526 25.4416 9.45975 25.1779C9.15154 24.9368 8.7064 24.991 8.4646 25.2986C8.22346 25.6068 8.27744 26.0519 8.58519 26.2937C8.81744 26.4752 9.0688 26.6081 9.32254 26.7109C9.28053 26.7447 9.23915 26.7792 9.1978 26.815C9.1978 26.815 7.06801 28.7871 5.67181 29.7255C5.34628 29.9439 5.25928 30.3841 5.47777 30.7096C5.69615 31.0352 6.13773 31.1221 6.46322 30.9035C8.04752 29.8386 10.1091 27.9047 10.1347 27.8807C11.2277 26.9415 12.6471 26.7365 14.0877 27.1849C14.436 27.3118 14.7474 27.4718 15.0053 27.6284C15.2439 27.8159 15.5753 27.8309 15.8299 27.6658C16.2719 27.3731 16.7498 27.1233 17.2541 26.9278C19.1787 26.2918 20.4112 25.4095 21.2749 24.5965C21.918 23.9345 22.4424 23.1546 22.6505 22.2646C22.6646 22.1998 22.6699 22.133 22.6657 22.0664L22.5257 19.3374H25.6511L25.5097 22.0664C25.5055 22.1514 25.5162 22.2359 25.5416 22.3172C25.7846 23.0843 26.1956 23.8377 26.893 24.5902C27.1138 24.7991 27.351 25.0064 27.6137 25.2111C27.548 25.5987 27.4864 25.9913 27.4321 26.3823C26.9779 26.0643 26.5876 25.7394 26.254 25.4246C25.6608 24.8736 25.1306 24.2458 24.7128 23.6255C24.5717 23.4152 24.3505 23.2539 24.0849 23.2555C23.8084 23.2559 23.5784 23.4229 23.446 23.6589C23.0036 24.3197 22.4097 24.9559 21.9158 25.4246C20.976 26.3114 19.6013 27.2816 17.5291 27.9651C14.9344 29.2928 13.5907 31.4487 12.5769 33.7212C12.4764 33.9471 12.5035 34.198 12.6226 34.3948C13.4962 35.8471 14.1624 37.2371 14.2471 38.7456C14.268 39.1379 14.6046 39.4388 14.9969 39.4164C15.3892 39.395 15.6888 39.0588 15.6663 38.6666C15.5686 36.9248 14.8587 35.4094 14.0212 33.9861C14.6771 32.5674 15.4215 31.3212 16.5243 30.3395C16.363 31.1428 16.2788 32.0963 16.4578 33.02C16.5329 33.4049 16.906 33.6553 17.2908 33.58C17.6756 33.5048 17.9261 33.1318 17.8507 32.747C17.6119 31.5137 18.124 29.8334 18.3511 29.178C18.7547 29.0352 19.1355 28.8814 19.4945 28.7179C19.4742 29.5867 19.3504 30.3128 19.2035 31.0338C19.0015 32.0249 18.7475 33.0204 18.7475 34.2549V39.9389C18.7475 40.2374 18.4031 40.683 18.182 40.7456C16.1314 41.326 14.3339 41.7285 12.392 42.5104C10.4501 43.2923 8.92836 44.5262 7.19086 44.8315C6.11923 44.9779 4.87669 45.0512 3.97533 45.0823C3.67065 45.093 3.41849 44.8511 3.41955 44.4864C3.43723 38.39 3.57062 35.1038 3.57062 35.1038C3.57062 35.1038 3.70479 26.2699 7.56237 19.6189ZM32.7653 12.6887C33.5386 12.6759 34.2477 13.0177 34.2525 13.02C36.699 14.2847 39.2425 17.2218 40.6129 19.6201C41.9628 21.9476 42.8554 24.5402 43.4472 26.9285C43.4515 27.5972 43.4043 31.8481 41.6385 35.5231C41.4668 35.8763 41.6147 36.3018 41.9684 36.4725C42.3231 36.6435 42.7492 36.4939 42.9178 36.137C43.6084 34.6998 44.0546 33.2049 44.344 31.8432C44.583 33.8046 44.6046 35.0948 44.6046 35.0948C44.6045 35.1033 44.6045 35.1076 44.6046 35.1162C44.6046 35.1162 44.738 38.3921 44.7556 44.4884C44.7563 44.8531 44.5059 45.0949 44.2012 45.0843C43.8282 45.0715 43.3896 45.049 42.9358 45.0193C42.7505 44.7258 42.4486 44.2165 42.1527 43.5862C41.6793 42.5777 41.2617 41.2802 41.3558 40.2445C41.493 38.7335 40.7362 37.4427 39.5651 36.5203C38.394 35.598 36.8082 34.9494 35.0287 34.4608C30.7437 33.273 28.7054 28.5135 28.6794 28.4524C28.6799 28.2062 28.6865 27.9507 28.7057 27.6776C28.7852 26.9048 28.9043 26.0795 29.0425 25.2798C29.8533 24.578 32.932 21.7374 33.8658 18.275C34.4473 16.1187 33.8784 14.4579 33.1423 13.4184C32.9452 13.1401 32.7347 12.9026 32.5324 12.7019C32.6098 12.6976 32.6874 12.6912 32.7653 12.6912L32.7653 12.6887ZM31.2199 13.4191C31.4401 13.5985 31.7219 13.8681 31.985 14.2396C32.5272 15.0054 32.9707 16.1332 32.4923 17.907C31.9959 19.7476 30.6426 21.5337 29.5387 22.758C30.051 19.9215 30.0044 16.6878 30.7168 14.4503C30.8659 14.0024 31.0354 13.6694 31.2199 13.4191ZM22.3371 15.67H25.8395L25.7231 17.9167H22.4521L22.3371 15.67ZM12.3717 27.986C11.8655 28.0312 11.3378 28.2494 10.7931 28.6846C10.7931 28.6846 8.71106 30.6609 6.98711 31.8197C6.66158 32.038 6.57458 32.4797 6.79308 32.8052C7.01144 33.1307 7.45165 33.2177 7.77713 32.9993C9.65206 31.739 11.651 29.8246 11.7009 29.7768C11.8378 29.6692 11.9572 29.591 12.0626 29.5344C11.0065 31.0967 10.2726 32.8388 9.67041 34.4367L7.85059 34.9952C7.47608 35.1097 7.26531 35.5048 7.37935 35.8794C7.49381 36.2539 7.89037 36.4661 8.265 36.3521L8.72377 36.2108C8.22897 36.9123 7.61149 37.5733 6.9289 38.0597C6.609 38.2866 6.53385 38.7297 6.76119 39.0493C6.98818 39.3692 7.43255 39.4444 7.75219 39.2169C9.17731 38.2014 10.2574 36.7059 10.8679 35.2724C11.6271 33.2245 12.5698 31.0105 13.9906 29.3264C14.2437 29.0273 14.2063 28.5789 13.9067 28.3257C13.436 28.033 12.8755 27.9766 12.3717 27.986ZM29.1673 31.979C30.3504 33.4842 32.145 35.1336 34.6503 35.828C36.1031 36.2269 37.3747 36.7407 38.2913 37.347H32.624C32.624 37.347 31.7311 37.3119 30.843 37.8335C30.2961 38.1547 29.757 38.718 29.4237 39.5508V34.2562C29.4237 33.4073 29.3057 32.6751 29.1673 31.979ZM11.7009 36.2466C11.5335 36.3219 11.4099 36.4535 11.3419 36.6097C10.6305 37.925 9.60437 39.1804 8.29689 40.1122C7.97697 40.3391 7.90181 40.7834 8.12918 41.1031C8.35616 41.423 8.79915 41.4982 9.11878 41.2707C10.1897 40.5075 11.0837 39.5708 11.7993 38.5611C11.8193 38.6769 11.8323 38.7882 11.8381 38.8923C11.8591 39.2846 12.1943 39.5842 12.5866 39.5618C12.9789 39.5404 13.2798 39.2056 13.2574 38.8133C13.2172 38.097 12.9861 37.3696 12.6392 36.6027C12.5187 36.3347 12.2516 36.178 11.9753 36.1841C11.8832 36.1862 11.7902 36.2055 11.7009 36.2466ZM39.6926 38.7663C39.9041 39.1727 39.9878 39.6136 39.9421 40.1176C39.8076 41.5974 40.3359 43.0639 40.8637 44.1884C40.9769 44.4295 41.0911 44.6541 41.2019 44.8606C41.1292 44.852 41.0556 44.8413 40.9843 44.8327C39.2468 44.5274 37.7196 43.2935 35.7716 42.5014C34.0139 41.7987 32.3608 41.4015 30.5311 40.8979C30.642 39.7654 31.1114 39.324 31.5609 39.06C32.0109 38.7958 32.4547 38.7687 32.5588 38.7662L39.6926 38.7663Z" fill="#FAFAFA"/>
</svg>
