<svg width="44" height="45" viewBox="0 0 44 45" fill="none" xmlns="http://www.w3.org/2000/svg">
<g clip-path="url(#clip0_90_2619)">
<path fill-rule="evenodd" clip-rule="evenodd" d="M16.0417 20.3C16.0417 20.7041 16.3702 21.0333 16.775 21.0333C17.1798 21.0333 17.5083 20.7041 17.5083 20.3C17.5083 19.8959 17.1798 19.5667 16.775 19.5667C16.3702 19.5667 16.0417 19.8959 16.0417 20.3ZM17.5083 33.5C17.5083 33.0959 17.1798 32.7667 16.775 32.7667C16.3702 32.7667 16.0417 33.0959 16.0417 33.5C16.0417 33.9041 16.3702 34.2333 16.775 34.2333C17.1798 34.2333 17.5083 33.9041 17.5083 33.5ZM11.6417 20.3C11.6417 19.8959 11.3131 19.5667 10.9083 19.5667C10.5035 19.5667 10.175 19.8959 10.175 20.3C10.175 20.7041 10.5035 21.0333 10.9083 21.0333C11.3131 21.0333 11.6417 20.7041 11.6417 20.3ZM11.6417 29.1C11.6417 28.6959 11.3131 28.3667 10.9083 28.3667C10.5035 28.3667 10.175 28.6959 10.175 29.1C10.175 29.5041 10.5035 29.8333 10.9083 29.8333C11.3131 29.8333 11.6417 29.5041 11.6417 29.1ZM16.0417 12.9667C16.0417 13.3707 16.3702 13.7 16.775 13.7C17.1798 13.7 17.5083 13.3707 17.5083 12.9667C17.5083 12.5626 17.1798 12.2333 16.775 12.2333C16.3702 12.2333 16.0417 12.5626 16.0417 12.9667ZM11.6417 13.7V18.2349C12.2635 18.4564 12.7519 18.9455 12.9727 19.5667H14.7107C15.0143 18.7145 15.8202 18.1 16.775 18.1C17.9879 18.1 18.975 19.0871 18.975 20.3C18.975 21.2548 18.3597 22.0607 17.5083 22.3651V31.4349C18.3597 31.7393 18.975 32.5452 18.975 33.5C18.975 34.4548 18.3597 35.2607 17.5083 35.5651V37.9C17.5083 38.3048 17.1805 38.6333 16.775 38.6333C16.3695 38.6333 16.0417 38.3048 16.0417 37.9V35.5643C15.2929 35.2981 14.7349 34.6425 14.6095 33.8373L11.8565 31.0851C11.8543 31.0837 11.8543 31.0807 11.8521 31.0785C11.5654 31.2164 11.2479 31.3 10.9083 31.3C9.6954 31.3 8.70833 30.3129 8.70833 29.1C8.70833 27.8871 9.6954 26.9 10.9083 26.9C12.1213 26.9 13.1083 27.8871 13.1083 29.1C13.1083 29.4388 13.0247 29.7571 12.8869 30.0438C12.8891 30.046 12.8913 30.0467 12.8935 30.0482L15.0253 32.1807C15.2827 31.8405 15.6332 31.5809 16.0417 31.4349V22.3643C15.4198 22.1436 14.9314 21.6545 14.7107 21.0333H12.9727C12.6691 21.8855 11.8631 22.5 10.9083 22.5C9.6954 22.5 8.70833 21.5129 8.70833 20.3C8.70833 19.3452 9.3236 18.5393 10.175 18.2349V12.9667C10.175 12.5619 10.5028 12.2333 10.9083 12.2333H14.7107C14.9314 11.6122 15.4198 11.1231 16.0417 10.9016V8.56667C16.0417 8.16187 16.3695 7.83333 16.775 7.83333C17.1805 7.83333 17.5083 8.16187 17.5083 8.56667V10.9016C18.3597 11.2059 18.975 12.0119 18.975 12.9667C18.975 14.1796 17.9879 15.1667 16.775 15.1667C15.8202 15.1667 15.0143 14.5521 14.7107 13.7H11.6417ZM40.7059 27.813C41.7978 26.8531 42.4417 25.4641 42.4417 23.9667C42.4417 22.3973 41.7443 20.9556 40.546 19.9876C40.8283 19.3987 40.975 18.7571 40.975 18.1C40.975 16.5864 40.1808 15.1923 38.9275 14.3967C39.3059 13.7374 39.5083 12.9938 39.5083 12.2333C39.5083 10.3413 38.3064 8.69647 36.5669 8.08927C36.5721 8.00347 36.575 7.9184 36.575 7.83333C36.575 5.40673 34.6016 3.43333 32.175 3.43333C31.5832 3.43333 31.0068 3.5536 30.4685 3.78533C29.8379 1.87573 28.0243 0.5 25.9417 0.5C22.8558 0.5 21.4837 3.28373 21.1897 4.75627C21.1845 4.78047 21.1911 4.80393 21.1897 4.82887C21.1875 4.8538 21.175 4.87433 21.175 4.9V39.3227C21.0093 41.4046 19.2412 43.0333 17.1417 43.0333C15.0495 43.0333 13.2865 41.3987 13.1274 39.3109C13.0981 38.9289 12.7578 38.6333 12.375 38.6333C12.1462 38.6333 11.9306 38.7404 11.7913 38.9223C11.2222 39.671 10.3657 40.1 9.44167 40.1C7.82393 40.1 6.50833 38.7844 6.50833 37.1667C6.50833 36.5008 6.74007 35.8643 7.18007 35.3253C7.37807 35.0825 7.40007 34.7401 7.2336 34.4739C7.06787 34.2077 6.754 34.0757 6.44453 34.1483C6.19887 34.2055 5.9796 34.2333 5.775 34.2333C4.15727 34.2333 2.84167 32.9177 2.84167 31.3C2.84167 30.0907 3.60947 28.9907 4.75127 28.5625C5.02333 28.4605 5.2096 28.2083 5.22647 27.9193C5.24333 27.6297 5.08787 27.3569 4.8312 27.2241C3.6036 26.5913 2.84167 25.3424 2.84167 23.9667C2.84167 22.6731 3.5068 21.4997 4.62147 20.828C4.79527 20.7231 4.91773 20.5508 4.96027 20.3521C5.00207 20.1526 4.95953 19.9458 4.84293 19.7793C4.49313 19.2799 4.30833 18.6999 4.30833 18.1C4.30833 16.8819 5.0842 15.7797 6.23773 15.3566C6.4658 15.273 6.63813 15.0816 6.69753 14.8462C6.7562 14.6101 6.69387 14.36 6.5318 14.1789C6.0434 13.634 5.775 12.9432 5.775 12.2333C5.775 10.8121 6.7936 9.6014 8.19573 9.35353C8.39227 9.31833 8.56753 9.20467 8.67827 9.0382C8.789 8.87173 8.82713 8.66713 8.7846 8.47207C8.73327 8.24327 8.70833 8.03427 8.70833 7.83333C8.70833 6.2156 10.0239 4.9 11.6417 4.9C12.2767 4.9 12.8891 5.11193 13.4134 5.51307C13.6268 5.67587 13.9121 5.7096 14.1563 5.60107C14.4019 5.4918 14.5677 5.25787 14.5904 4.99093C14.7297 3.29547 16.1729 1.96667 17.875 1.96667C18.6919 1.96667 19.3673 2.2292 19.9393 2.76893C20.2349 3.04687 20.6991 3.03293 20.9763 2.73813C21.2542 2.44333 21.241 1.97987 20.9462 1.70193C20.1007 0.904067 19.0674 0.5 17.875 0.5C15.7923 0.5 13.9788 1.87573 13.3481 3.78533C12.8099 3.5536 12.2335 3.43333 11.6417 3.43333C9.21507 3.43333 7.24167 5.40673 7.24167 7.83333C7.24167 7.9184 7.2446 8.00347 7.24973 8.08927C5.51027 8.69647 4.30833 10.3413 4.30833 12.2333C4.30833 12.9938 4.51073 13.7374 4.88913 14.3967C3.63587 15.1923 2.84167 16.5864 2.84167 18.1C2.84167 18.7571 2.98833 19.3987 3.27067 19.9876C2.0724 20.9556 1.375 22.3973 1.375 23.9667C1.375 25.4641 2.01887 26.8531 3.1108 27.813C2.0394 28.6321 1.375 29.9184 1.375 31.3C1.375 33.5682 3.10053 35.4411 5.30787 35.6751C5.13187 36.1503 5.04167 36.6519 5.04167 37.1667C5.04167 39.5933 7.01507 41.5667 9.44167 41.5667C10.3525 41.5667 11.2193 41.2902 11.9467 40.7835C12.6947 42.9497 14.762 44.5 17.1417 44.5C20.0075 44.5 22.4224 42.2692 22.6395 39.4224C22.6402 39.4129 22.6358 39.4041 22.6358 39.3945C22.6365 39.3843 22.6417 39.3769 22.6417 39.3667V4.98067C22.7502 4.5304 23.474 1.96667 25.9417 1.96667C27.6437 1.96667 29.0869 3.29547 29.2263 4.99093C29.249 5.25787 29.4147 5.4918 29.6604 5.60107C29.9046 5.7096 30.1899 5.67587 30.4033 5.51307C30.9276 5.11193 31.5399 4.9 32.175 4.9C33.7927 4.9 35.1083 6.2156 35.1083 7.83333C35.1083 8.03427 35.0834 8.24327 35.0321 8.47207C34.9895 8.66713 35.0277 8.87173 35.1384 9.0382C35.2491 9.20467 35.4244 9.31833 35.6209 9.35353C37.0231 9.6014 38.0417 10.8121 38.0417 12.2333C38.0417 12.9432 37.7733 13.634 37.2849 14.1789C37.1228 14.36 37.0605 14.6101 37.1191 14.8462C37.1785 15.0816 37.3509 15.273 37.5789 15.3566C38.7325 15.7797 39.5083 16.8819 39.5083 18.1C39.5083 18.6999 39.3235 19.2799 38.9737 19.7793C38.8571 19.9458 38.8146 20.1526 38.8564 20.3521C38.8989 20.5508 39.0214 20.7231 39.1952 20.828C40.3099 21.4997 40.975 22.6731 40.975 23.9667C40.975 25.3424 40.2131 26.5913 38.9855 27.2241C38.7288 27.3569 38.5733 27.6297 38.5902 27.9193C38.6071 28.2083 38.7933 28.4605 39.0654 28.5625C40.2072 28.9907 40.975 30.0907 40.975 31.3C40.975 32.9177 39.6594 34.2333 38.0417 34.2333C37.8371 34.2333 37.6178 34.2055 37.3721 34.1483C37.0641 34.0757 36.7495 34.2077 36.5831 34.4739C36.4166 34.7401 36.4386 35.0825 36.6366 35.3253C37.0766 35.8643 37.3083 36.5008 37.3083 37.1667C37.3083 38.7844 35.9927 40.1 34.375 40.1C33.4481 40.1 32.593 39.6659 32.0298 38.9083C31.8406 38.6553 31.5113 38.5519 31.2114 38.6502C31.1029 38.6861 31.0075 38.7455 30.9305 38.8211C30.7941 38.9428 30.7039 39.1159 30.6893 39.3109C30.5301 41.3987 28.7672 43.0333 26.675 43.0333C25.7532 43.0333 24.8835 42.7305 24.1597 42.1577C23.8407 41.9062 23.3809 41.9605 23.1293 42.2773C22.8778 42.5948 22.9321 43.0561 23.2489 43.3076C24.2205 44.0761 25.4379 44.5 26.675 44.5C29.0561 44.5 31.1249 42.9468 31.8714 40.7783C32.5967 41.2887 33.462 41.5667 34.375 41.5667C36.8016 41.5667 38.775 39.5933 38.775 37.1667C38.775 36.6519 38.6848 36.1503 38.5088 35.6751C40.7161 35.4411 42.4417 33.5682 42.4417 31.3C42.4417 29.9184 41.7773 28.6321 40.7059 27.813ZM27.775 33.5C27.775 33.9048 28.1028 34.2333 28.5083 34.2333C29.5775 34.2333 30.7083 35.3641 30.7083 36.4333C30.7083 36.8381 31.0361 37.1667 31.4417 37.1667C31.8472 37.1667 32.175 36.8381 32.175 36.4333C32.175 34.5487 30.393 32.7667 28.5083 32.7667C28.1028 32.7667 27.775 33.0952 27.775 33.5ZM34.375 13.7C33.3058 13.7 32.175 12.5692 32.175 11.5C32.175 11.0952 31.8472 10.7667 31.4417 10.7667C31.0361 10.7667 30.7083 11.0952 30.7083 11.5C30.7083 13.3847 32.4903 15.1667 34.375 15.1667C34.7805 15.1667 35.1083 14.8381 35.1083 14.4333C35.1083 14.0285 34.7805 13.7 34.375 13.7ZM25.575 29.8333C25.9805 29.8333 26.3083 29.5048 26.3083 29.1C26.3083 28.0308 27.4391 26.9 28.5083 26.9C28.9139 26.9 29.2417 26.5715 29.2417 26.1667C29.2417 25.7619 28.9139 25.4333 28.5083 25.4333C26.6237 25.4333 24.8417 27.2153 24.8417 29.1C24.8417 29.5048 25.1695 29.8333 25.575 29.8333ZM28.5083 21.0333C28.9139 21.0333 29.2417 20.7048 29.2417 20.3C29.2417 19.8952 28.9139 19.5667 28.5083 19.5667C27.4391 19.5667 26.3083 18.4359 26.3083 17.3667C26.3083 16.9619 25.9805 16.6333 25.575 16.6333C25.1695 16.6333 24.8417 16.9619 24.8417 17.3667C24.8417 19.2513 26.6237 21.0333 28.5083 21.0333ZM35.8417 18.1C35.4361 18.1 35.1083 18.4285 35.1083 18.8333C35.1083 19.9025 33.9775 21.0333 32.9083 21.0333C32.5028 21.0333 32.175 21.3619 32.175 21.7667C32.175 22.1715 32.5028 22.5 32.9083 22.5C34.793 22.5 36.575 20.718 36.575 18.8333C36.575 18.4285 36.2472 18.1 35.8417 18.1ZM32.9083 26.9C32.5028 26.9 32.175 27.2285 32.175 27.6333C32.175 28.0381 32.5028 28.3667 32.9083 28.3667C33.9775 28.3667 35.1083 29.4975 35.1083 30.5667C35.1083 30.9715 35.4361 31.3 35.8417 31.3C36.2472 31.3 36.575 30.9715 36.575 30.5667C36.575 28.682 34.793 26.9 32.9083 26.9ZM24.8417 10.7667C24.8417 8.882 26.6237 7.1 28.5083 7.1C28.9139 7.1 29.2417 7.42853 29.2417 7.83333C29.2417 8.23813 28.9139 8.56667 28.5083 8.56667C27.4391 8.56667 26.3083 9.69747 26.3083 10.7667C26.3083 11.1715 25.9805 11.5 25.575 11.5C25.1695 11.5 24.8417 11.1715 24.8417 10.7667Z" fill="#FAFAFA"/>
</g>
<defs>
<clipPath id="clip0_90_2619">
<rect width="44" height="44" fill="white" transform="translate(0 0.5)"/>
</clipPath>
</defs>
</svg>
