<svg width="44" height="45" viewBox="0 0 44 45" fill="none" xmlns="http://www.w3.org/2000/svg">
<g id="&#195;&#173;cono" clip-path="url(#clip0_90_2473)">
<path id="Vector" d="M38.7155 22.3639C36.6383 20.2863 33.8759 19.1419 30.9375 19.1419C27.9991 19.1419 25.2368 20.2863 23.1595 22.3639C21.0818 24.4408 19.9375 27.2039 19.9375 30.1416C19.9375 33.0793 21.0818 35.8423 23.1595 37.9196C25.2368 39.9969 27.9991 41.1416 30.9375 41.1416C33.8759 41.1416 36.6383 39.9969 38.7155 37.9196C40.7932 35.8423 41.9375 33.0796 41.9375 30.1416C41.9375 27.2032 40.7932 24.4408 38.7155 22.3639ZM30.9375 39.7666C28.3666 39.7666 25.949 38.7649 24.1316 36.9475C22.3138 35.1297 21.3125 32.7128 21.3125 30.1416C21.3125 27.8006 22.1444 25.5903 23.6644 23.8406L37.2378 37.4139C35.4888 38.935 33.2781 39.7666 30.9375 39.7666ZM38.2102 36.4428L24.6369 22.8688C26.3862 21.3488 28.5969 20.5169 30.9375 20.5169C33.5084 20.5169 35.926 21.5179 37.7434 23.336C39.5612 25.1537 40.5625 27.5707 40.5625 30.1416C40.5625 32.4822 39.7303 34.6932 38.2102 36.4428Z" fill="#FAFAFA"/>
<path id="Vector_2" d="M32.4797 13.0451C31.8599 11.469 30.7314 9.79223 29.3846 8.44508C27.2286 6.28908 24.4683 4.84052 22.5168 4.84052C21.7355 4.84052 21.0844 5.07839 20.6341 5.52836C18.8325 7.32961 20.7455 11.4728 23.5512 14.2785C25.7068 16.4345 28.4671 17.8834 30.4186 17.8834C31.1999 17.8834 31.851 17.6455 32.3013 17.1956C33.1397 16.3575 33.2033 14.8835 32.4797 13.0451ZM21.6062 6.50083C21.7956 6.31177 22.1019 6.21552 22.5165 6.21552C23.9413 6.21552 26.13 7.33889 27.912 8.94523L24.0493 12.8086C21.7038 10.2281 20.7795 7.32789 21.6062 6.50083ZM31.3299 16.2235C31.1401 16.4125 30.8345 16.5088 30.4196 16.5088C28.9948 16.5088 26.8061 15.385 25.0241 13.7787L28.8855 9.91702C29.8923 11.0342 30.7214 12.3284 31.201 13.5487C31.6891 14.7897 31.7383 15.8147 31.3299 16.2235Z" fill="#FAFAFA"/>
<path id="Vector_3" d="M10.5712 42.6238C10.4891 42.6238 10.4055 42.6128 10.3241 42.5897C8.12442 41.9758 5.50195 40.1917 5.50195 35.1816V32.6805C5.50195 32.4055 5.80995 32.1824 6.18945 32.1824C6.56895 32.1824 6.87695 32.4055 6.87695 32.6805V35.1816C6.87695 38.6995 8.23992 40.9401 10.8184 41.6602C11.1725 41.7592 11.3491 42.0477 11.2127 42.3044C11.1078 42.5021 10.8476 42.6238 10.5712 42.6238Z" fill="#FAFAFA"/>
<path id="Vector_4" d="M7.60547 5.35614C7.98516 5.35614 8.29297 5.04834 8.29297 4.66864C8.29297 4.28894 7.98516 3.98114 7.60547 3.98114C7.22577 3.98114 6.91797 4.28894 6.91797 4.66864C6.91797 5.04834 7.22577 5.35614 7.60547 5.35614Z" fill="#FAFAFA"/>
<path id="Vector_5" d="M5.54297 7.97656C5.92266 7.97656 6.23047 7.66876 6.23047 7.28906C6.23047 6.90937 5.92266 6.60156 5.54297 6.60156C5.16327 6.60156 4.85547 6.90937 4.85547 7.28906C4.85547 7.66876 5.16327 7.97656 5.54297 7.97656Z" fill="#FAFAFA"/>
<path id="Vector_6" d="M6.57422 10.5028C6.95391 10.5028 7.26172 10.195 7.26172 9.81531C7.26172 9.43561 6.95391 9.12781 6.57422 9.12781C6.19452 9.12781 5.88672 9.43561 5.88672 9.81531C5.88672 10.195 6.19452 10.5028 6.57422 10.5028Z" fill="#FAFAFA"/>
<path id="Vector_7" d="M9.06641 7.97656C9.4461 7.97656 9.75391 7.66876 9.75391 7.28906C9.75391 6.90937 9.4461 6.60156 9.06641 6.60156C8.68671 6.60156 8.37891 6.90937 8.37891 7.28906C8.37891 7.66876 8.68671 7.97656 9.06641 7.97656Z" fill="#FAFAFA"/>
<path id="Vector_8" d="M13.1914 5.52802C13.5711 5.52802 13.8789 5.22021 13.8789 4.84052C13.8789 4.46082 13.5711 4.15302 13.1914 4.15302C12.8117 4.15302 12.5039 4.46082 12.5039 4.84052C12.5039 5.22021 12.8117 5.52802 13.1914 5.52802Z" fill="#FAFAFA"/>
<path id="Vector_9" d="M10.3555 4.15302C10.7352 4.15302 11.043 3.84521 11.043 3.46552C11.043 3.08582 10.7352 2.77802 10.3555 2.77802C9.97577 2.77802 9.66797 3.08582 9.66797 3.46552C9.66797 3.84521 9.97577 4.15302 10.3555 4.15302Z" fill="#FAFAFA"/>
<path id="Vector_10" d="M11.7305 15.8209C12.1102 15.8209 12.418 15.5131 12.418 15.1334C12.418 14.7537 12.1102 14.4459 11.7305 14.4459C11.3508 14.4459 11.043 14.7537 11.043 15.1334C11.043 15.5131 11.3508 15.8209 11.7305 15.8209Z" fill="#FAFAFA"/>
<path id="Vector_11" d="M15.2832 8.14844C15.6629 8.14844 15.9707 7.84063 15.9707 7.46094C15.9707 7.08124 15.6629 6.77344 15.2832 6.77344C14.9035 6.77344 14.5957 7.08124 14.5957 7.46094C14.5957 7.84063 14.9035 8.14844 15.2832 8.14844Z" fill="#FAFAFA"/>
<path id="Vector_12" d="M12.5039 8.83594C12.8836 8.83594 13.1914 8.52813 13.1914 8.14844C13.1914 7.76874 12.8836 7.46094 12.5039 7.46094C12.1242 7.46094 11.8164 7.76874 11.8164 8.14844C11.8164 8.52813 12.1242 8.83594 12.5039 8.83594Z" fill="#FAFAFA"/>
<path id="Vector_13" d="M13.1914 12.5312C13.5711 12.5312 13.8789 12.2234 13.8789 11.8438C13.8789 11.4641 13.5711 11.1562 13.1914 11.1562C12.8117 11.1562 12.5039 11.4641 12.5039 11.8438C12.5039 12.2234 12.8117 12.5312 13.1914 12.5312Z" fill="#FAFAFA"/>
<path id="Vector_14" d="M11.043 20.5165C11.4227 20.5165 11.7305 20.2087 11.7305 19.829C11.7305 19.4493 11.4227 19.1415 11.043 19.1415C10.6633 19.1415 10.3555 19.4493 10.3555 19.829C10.3555 20.2087 10.6633 20.5165 11.043 20.5165Z" fill="#FAFAFA"/>
<path id="Vector_15" d="M9.66797 11.8438C10.0477 11.8438 10.3555 11.5359 10.3555 11.1562C10.3555 10.7766 10.0477 10.4688 9.66797 10.4688C9.28827 10.4688 8.98047 10.7766 8.98047 11.1562C8.98047 11.5359 9.28827 11.8438 9.66797 11.8438Z" fill="#FAFAFA"/>
<path id="Vector_16" d="M4.85547 17.024C5.23516 17.024 5.54297 16.7162 5.54297 16.3365C5.54297 15.9568 5.23516 15.649 4.85547 15.649C4.47577 15.649 4.16797 15.9568 4.16797 16.3365C4.16797 16.7162 4.47577 17.024 4.85547 17.024Z" fill="#FAFAFA"/>
<path id="Vector_17" d="M8.29297 15.6834C8.67266 15.6834 8.98047 15.3756 8.98047 14.9959C8.98047 14.6162 8.67266 14.3084 8.29297 14.3084C7.91327 14.3084 7.60547 14.6162 7.60547 14.9959C7.60547 15.3756 7.91327 15.6834 8.29297 15.6834Z" fill="#FAFAFA"/>
<path id="XMLID_14_" d="M5.54297 13.2188C5.92266 13.2188 6.23047 12.9109 6.23047 12.5312C6.23047 12.1516 5.92266 11.8438 5.54297 11.8438C5.16327 11.8438 4.85547 12.1516 4.85547 12.5312C4.85547 12.9109 5.16327 13.2188 5.54297 13.2188Z" fill="#FAFAFA"/>
<path id="XMLID_13_" d="M15.6836 11.3622C16.0633 11.3622 16.3711 11.0544 16.3711 10.6747C16.3711 10.295 16.0633 9.98718 15.6836 9.98718C15.3039 9.98718 14.9961 10.295 14.9961 10.6747C14.9961 11.0544 15.3039 11.3622 15.6836 11.3622Z" fill="#FAFAFA"/>
<path id="XMLID_12_" d="M13.1914 18.089C13.5711 18.089 13.8789 17.7812 13.8789 17.4015C13.8789 17.0218 13.5711 16.714 13.1914 16.714C12.8117 16.714 12.5039 17.0218 12.5039 17.4015C12.5039 17.7812 12.8117 18.089 13.1914 18.089Z" fill="#FAFAFA"/>
<path id="XMLID_8_" d="M14.9961 15.6834C15.3758 15.6834 15.6836 15.3756 15.6836 14.9959C15.6836 14.6162 15.3758 14.3084 14.9961 14.3084C14.6164 14.3084 14.3086 14.6162 14.3086 14.9959C14.3086 15.3756 14.6164 15.6834 14.9961 15.6834Z" fill="#FAFAFA"/>
<path id="XMLID_11_" d="M8.37891 18.7978C8.7586 18.7978 9.06641 18.49 9.06641 18.1103C9.06641 17.7306 8.7586 17.4228 8.37891 17.4228C7.99921 17.4228 7.69141 17.7306 7.69141 18.1103C7.69141 18.49 7.99921 18.7978 8.37891 18.7978Z" fill="#FAFAFA"/>
<path id="XMLID_10_" d="M5.54297 20.3447C5.92266 20.3447 6.23047 20.0369 6.23047 19.6572C6.23047 19.2775 5.92266 18.9697 5.54297 18.9697C5.16327 18.9697 4.85547 19.2775 4.85547 19.6572C4.85547 20.0369 5.16327 20.3447 5.54297 20.3447Z" fill="#FAFAFA"/>
<path id="XMLID_9_" d="M14.9961 20.5165C15.3758 20.5165 15.6836 20.2087 15.6836 19.829C15.6836 19.4493 15.3758 19.1415 14.9961 19.1415C14.6164 19.1415 14.3086 19.4493 14.3086 19.829C14.3086 20.2087 14.6164 20.5165 14.9961 20.5165Z" fill="#FAFAFA"/>
<path id="Vector_18" d="M10.3125 0.5C5.76366 0.5 2.0625 4.23931 2.0625 8.83594V36.1641C2.0625 40.7603 5.76366 44.5 10.3125 44.5C14.8613 44.5 18.5625 40.7603 18.5625 36.1641V8.83594C18.5625 4.23931 14.8613 0.5 10.3125 0.5ZM10.3125 1.875C14.1034 1.875 17.1875 4.99762 17.1875 8.83594V21.8125H3.4375V8.83594C3.4375 4.99762 6.52163 1.875 10.3125 1.875ZM10.3125 43.125C6.52163 43.125 3.4375 40.0024 3.4375 36.1641V23.1875H17.1875V36.1641C17.1875 40.0024 14.1034 43.125 10.3125 43.125Z" fill="#FAFAFA"/>
</g>
<defs>
<clipPath id="clip0_90_2473">
<rect width="44" height="44" fill="white" transform="translate(0 0.5)"/>
</clipPath>
</defs>
</svg>
