<svg width="122" height="80" viewBox="0 0 122 80" fill="none" xmlns="http://www.w3.org/2000/svg">
<rect width="121.661" height="80" fill="#011C40"/>
<path d="M21.7748 20.3685V48.2095C21.7748 51.2599 22.5697 53.6015 24.1593 55.2342C25.749 56.8238 27.9832 57.6187 30.8618 57.6187C33.7834 57.6187 36.039 56.8238 37.6287 55.2342C39.2184 53.6015 40.0132 51.2599 40.0132 48.2095V20.3685H49.1002V48.145C49.1002 51.9689 48.2624 55.2127 46.5868 57.8765C44.9541 60.4973 42.7415 62.4737 39.9488 63.8056C37.1991 65.1375 34.1271 65.8034 30.7329 65.8034C27.3817 65.8034 24.3312 65.1375 21.5815 63.8056C18.8747 62.4737 16.7265 60.4973 15.1368 57.8765C13.5471 55.2127 12.7523 51.9689 12.7523 48.145V20.3685H21.7748ZM88.4298 20.3685V27.651H76.4427V65.3523H67.4202V27.651H55.4331V20.3685H88.4298Z" fill="#FAFAFA"/>
<path d="M21.7748 20.3685H22.0433V20.0999H21.7748V20.3685ZM24.1593 55.2342L23.9669 55.4215L23.9695 55.424L24.1593 55.2342ZM37.6287 55.2342L37.8186 55.4241L37.8211 55.4215L37.6287 55.2342ZM40.0132 20.3685V20.0999H39.7447V20.3685H40.0132ZM49.1002 20.3685H49.3687V20.0999H49.1002V20.3685ZM46.5868 57.8765L46.3595 57.7335L46.3589 57.7345L46.5868 57.8765ZM39.9488 63.8056L39.8332 63.5632L39.8317 63.5639L39.9488 63.8056ZM21.5815 63.8056L21.4629 64.0465L21.4644 64.0472L21.5815 63.8056ZM15.1368 57.8765L14.9062 58.0141L14.9072 58.0157L15.1368 57.8765ZM12.7523 20.3685V20.0999H12.4837V20.3685H12.7523ZM21.5063 20.3685V48.2095H22.0433V20.3685H21.5063ZM21.5063 48.2095C21.5063 51.3056 22.3137 53.7236 23.9669 55.4215L24.3517 55.0468C22.8256 53.4794 22.0433 51.2143 22.0433 48.2095H21.5063ZM23.9695 55.424C25.6226 57.0772 27.9329 57.8872 30.8618 57.8872V57.3502C28.0335 57.3502 25.8755 56.5705 24.3492 55.0443L23.9695 55.424ZM30.8618 57.8872C33.8324 57.8872 36.1647 57.0779 37.8186 55.424L37.4388 55.0443C35.9133 56.5698 33.7344 57.3502 30.8618 57.3502V57.8872ZM37.8211 55.4215C39.4743 53.7236 40.2818 51.3056 40.2818 48.2095H39.7447C39.7447 51.2143 38.9625 53.4794 37.4363 55.0468L37.8211 55.4215ZM40.2818 48.2095V20.3685H39.7447V48.2095H40.2818ZM40.0132 20.637H49.1002V20.0999H40.0132V20.637ZM48.8317 20.3685V48.145H49.3687V20.3685H48.8317ZM48.8317 48.145C48.8317 51.9292 48.0029 55.1209 46.3595 57.7335L46.8141 58.0194C48.5219 55.3044 49.3687 52.0085 49.3687 48.145H48.8317ZM46.3589 57.7345C44.7534 60.3117 42.5797 62.2533 39.8332 63.5632L40.0644 64.0479C42.9032 62.694 45.1549 60.6829 46.8147 58.0185L46.3589 57.7345ZM39.8317 63.5639C37.1224 64.8762 34.0911 65.5349 30.7329 65.5349V66.0719C34.1631 66.0719 37.2757 65.3987 40.0658 64.0472L39.8317 63.5639ZM30.7329 65.5349C27.4182 65.5349 24.4083 64.8765 21.6985 63.5639L21.4644 64.0472C24.254 65.3985 27.3451 66.0719 30.7329 66.0719V65.5349ZM21.7 63.5646C19.04 62.2557 16.93 60.315 15.3664 57.7372L14.9072 58.0157C16.523 60.6796 18.7094 62.6916 21.4629 64.0465L21.7 63.5646ZM15.3674 57.7389C13.8077 55.1254 13.0208 51.9316 13.0208 48.145H12.4837C12.4837 52.0061 13.2865 55.3 14.9062 58.0141L15.3674 57.7389ZM13.0208 48.145V20.3685H12.4837V48.145H13.0208ZM12.7523 20.637H21.7748V20.0999H12.7523V20.637ZM88.4298 20.3685H88.6984V20.0999H88.4298V20.3685ZM88.4298 27.651V27.9195H88.6984V27.651H88.4298ZM76.4428 27.651V27.3824H76.1742V27.651H76.4428ZM76.4428 65.3523V65.6208H76.7113V65.3523H76.4428ZM67.4202 65.3523H67.1517V65.6208H67.4202V65.3523ZM67.4202 27.651H67.6887V27.3824H67.4202V27.651ZM55.4331 27.651H55.1646V27.9195H55.4331V27.651ZM55.4331 20.3685V20.0999H55.1646V20.3685H55.4331ZM88.1613 20.3685V27.651H88.6984V20.3685H88.1613ZM88.4298 27.3824H76.4428V27.9195H88.4298V27.3824ZM76.1742 27.651V65.3523H76.7113V27.651H76.1742ZM76.4428 65.0838H67.4202V65.6208H76.4428V65.0838ZM67.6887 65.3523V27.651H67.1517V65.3523H67.6887ZM67.4202 27.3824H55.4331V27.9195H67.4202V27.3824ZM55.7016 27.651V20.3685H55.1646V27.651H55.7016ZM55.4331 20.637H88.4298V20.0999H55.4331V20.637Z" fill="#FAFAFA"/>
<path d="M103.375 8.00012C105.906 8.01819 107.908 10.0601 107.892 12.6063C107.876 15.1391 105.827 17.1531 103.291 17.1297C100.762 17.1064 98.7423 15.0514 98.7624 12.5229C98.7824 9.99796 100.838 7.98237 103.375 8.00012Z" fill="#FAFAFA"/>
<path d="M101.63 71.6475C101.518 71.1357 101.613 70.6805 101.804 70.2214C102.023 69.6976 102.384 69.2723 102.81 68.8819L102.81 68.8818C103.584 68.173 104.49 67.662 105.436 67.1932C105.694 67.0651 105.957 66.9462 106.222 66.8262C106.281 66.7996 106.34 66.7728 106.4 66.7459C106.724 66.5986 107.05 66.4468 107.366 66.2745C107.874 65.9981 108.401 65.6904 108.835 65.2907C108.835 65.2907 108.835 65.2907 108.835 65.2907L108.744 65.1919M101.63 71.6475L108.027 61.6363V61.6348V61.6332V61.6316V61.63V61.6285V61.6269V61.6253V61.6238V61.6222V61.6206V61.619V61.6175V61.6159V61.6143V61.6127V61.6112V61.6096V61.608V61.6064V61.6049V61.6033V61.6017V61.6002V61.5986V61.597V61.5954V61.5939V61.5923V61.5907V61.5891V61.5876V61.586V61.5844V61.5828V61.5813V61.5797V61.5781V61.5765V61.575V61.5734V61.5718V61.5703V61.5687V61.5671V61.5655V61.564V61.5624V61.5608V61.5592V61.5577V61.5561V61.5545V61.5529V61.5514V61.5498V61.5482V61.5467V61.5451V61.5435V61.5419V61.5404V61.5388V61.5372V61.5356V61.5341V61.5325V61.5309V61.5293V61.5278V61.5262V61.5246V61.5231V61.5215V61.5199V61.5183V61.5168V61.5152V61.5136V61.512V61.5105V61.5089V61.5073V61.5057V61.5042V61.5026V61.501V61.4995V61.4979V61.4963V61.4947V61.4932V61.4916V61.49V61.4884V61.4869V61.4853V61.4837V61.4821V61.4806V61.479V61.4774V61.4759V61.4743V61.4727V61.4711V61.4696V61.468V61.4664V61.4648V61.4633V61.4617V61.4601V61.4585V61.457V61.4554V61.4538V61.4523V61.4507V61.4491V61.4475V61.446V61.4444V61.4428V61.4412V61.4397V61.4381V61.4365V61.4349V61.4334V61.4318V61.4302V61.4286V61.4271V61.4255V61.4239V61.4224V61.4208V61.4192V61.4176V61.4161V61.4145V61.4129V61.4113V61.4098V61.4082V61.4066V61.405V61.4035V61.4019V61.4003V61.3988V61.3972V61.3956V61.394V61.3925V61.3909V61.3893V61.3877V61.3862V61.3846V61.383V61.3814V61.3799V61.3783V61.3767V61.3752V61.3736V61.372V61.3704V61.3689V61.3673V61.3657V61.3641V61.3626V61.361V61.3594V61.3578V61.3563V61.3547V61.3531V61.3516V61.35V61.3484V61.3468V61.3453V61.3437V61.3421V61.3405V61.339V61.3374V61.3358V61.3342V61.3327V61.3311V61.3295V61.328V61.3264V61.3248V61.3232V61.3217V61.3201V61.3185V61.3169V61.3154V61.3138V61.3122V61.3106V61.3091V61.3075V61.3059V61.3044V61.3028V61.3012V61.2996V61.2981V61.2965V61.2949V61.2933V61.2918V61.2902V61.2886V61.287V61.2855V61.2839V61.2823V61.2807V61.2792V61.2776V61.276V61.2745V61.2729V61.2713V61.2697V61.2682V61.2666V61.265V61.2634V61.2619V61.2603V61.2587V61.2571V61.2556V61.254V61.2524V61.2509V61.2493V61.2477V61.2461V61.2446V61.243V61.2414V61.2398V61.2383V61.2367V61.2351V61.2335V61.232V61.2304V61.2288V61.2273V61.2257V61.2241V61.2225V61.221V61.2194V61.2178V61.2162V61.2147V61.2131V61.2115V61.2099V61.2084V61.2068V61.2052V61.2037V61.2021V61.2005V61.1989V61.1974V61.1958V61.1942V61.1926V61.1911V61.1895V61.1879V61.1863V61.1848V61.1832V61.1816V61.1801V61.1785V61.1769V61.1753V61.1738V61.1722V61.1706V61.169V61.1675V61.1659V61.1643V61.1627V61.1612V61.1596V61.158V61.1565V61.1549V61.1533V61.1517V61.1502V61.1486V61.147V61.1454V61.1439V61.1423V61.1407V61.1391V61.1376V61.136V61.1344V61.1328V61.1313V61.1297V61.1281V61.1266V61.125V61.1234V61.1218V61.1203V61.1187V61.1171V61.1155V61.114V61.1124V61.1108V61.1092V61.1077V61.1061V61.1045V61.103V61.1014V61.0998V61.0982V61.0967V61.0951V61.0935V61.0919V61.0904V61.0888V61.0872V61.0856V61.0841V61.0825V61.0809V61.0794V61.0778V61.0762V61.0746V61.0731V61.0715V61.0699V61.0683V61.0668V61.0652V61.0636V61.062V61.0605V61.0589V61.0573V61.0558V61.0542V61.0526V61.051V61.0495V61.0479V61.0463V61.0447V61.0432V61.0416V61.04V61.0384V61.0369V61.0353V61.0337V61.0322V61.0306V61.029V61.0274V61.0259V61.0243V61.0227V61.0211V61.0196V61.018V61.0164V61.0148V61.0133V61.0117V61.0101V61.0086V61.007V61.0054V61.0038V61.0023V61.0007V60.9991V60.9975V60.996V60.9944V60.9928V60.9912V60.9897V60.9881V60.9865V60.9849V60.9834V60.9818V60.9802V60.9787V60.9771V60.9755V60.9739V60.9724V60.9708V60.9692V60.9676V60.9661V60.9645V60.9629V60.9613V60.9598V60.9582V60.9566V60.9551V60.9535V60.9519V60.9503V60.9488V60.9472V60.9456V60.944V60.9425V60.9409V60.9393V60.9377V60.9362V60.9346V60.933V60.9315V60.9299V60.9283V60.9267V60.9252V60.9236V60.922V60.9204V60.9189V60.9173V60.9157V60.9141V60.9126V60.911V60.9094V60.9079V60.9063V60.9047V60.9031V60.9016V60.9V60.8965V60.893V60.8896V60.8862V60.8828V60.8794V60.8761V60.8728V60.8695V60.8662V60.863V60.8598V60.8566V60.8534V60.8502V60.8471V60.844V60.8409V60.8378V60.8348V60.8318V60.8288V60.8258V60.8229V60.8199V60.817V60.8142V60.8113V60.8085V60.8056V60.8028V60.8001V60.7973V60.7946V60.7919V60.7892V60.7865V60.7839V60.7812V60.7786V60.776V60.7735V60.7709V60.7684V60.7659V60.7634V60.7609V60.7585V60.756V60.7536V60.7513V60.7489V60.7465V60.7442V60.7419V60.7396V60.7373V60.7351V60.7328V60.7306V60.7284V60.7262V60.7241V60.7219V60.7198V60.7177V60.7156V60.7135V60.7115V60.7094V60.7074V60.7054V60.7034V60.7015V60.6995V60.6976V60.6957V60.6938V60.6919V60.69V60.6882V60.6863V60.6845V60.6827V60.6809V60.6792V60.6774V60.6757V60.674V60.6722V60.6706V60.6689V60.6672V60.6656V60.664V60.6623V60.6607V60.6592V60.6576V60.656V60.6545V60.653V60.6515V60.65V60.6485V60.647V60.6455V60.6441V60.6427V60.6413V60.6399V60.6385V60.6371V60.6357V60.6344V60.6331V60.6317V60.6304V60.6291V60.6278V60.6266V60.6253V60.6241V60.6228V60.6216V60.6204V60.6192V60.618V60.6169V60.6157V60.6145V60.6134V60.6123V60.6112V60.61V60.609V60.6079V60.6068V60.6057V60.6047V60.6036V60.6026V60.6016V60.6006V60.5996V60.5986V60.5976V60.5966V60.5957V60.5947V60.5938V60.5929V60.5919V60.591V60.5901V60.5892V60.5883V60.5875V60.5866V60.5857V60.5849V60.5841V60.5832V60.5824V60.5816V60.5808V60.58V60.5792V60.5784V60.5776V60.5768V60.5761V60.5753V60.5746V60.5738V60.5731V60.5724V60.5717V60.5709V60.5702V60.5695V60.5688V60.5682V60.5675V60.5668V60.5661V60.5655V60.5648V60.5642V60.5635V60.5629V60.5622V60.5616V60.561V60.5604V60.5598V60.5592V60.5586V60.558V60.5574V60.5568V60.5562V60.5556V60.555V60.5545V60.5539V60.5533V60.5528V60.5522V60.5517V60.5511V60.5506V60.55V60.5495V60.549V60.5484V60.5479V60.5474V60.5468V60.5463V60.5458V60.5453V60.5448V60.5443V60.5438V60.5433V60.5428V60.5422V60.5417V60.5412V60.5408V60.5403V60.5398V60.5393V60.5388V60.5383V60.5378V60.5373V60.5368V60.5363V60.5358V60.5354V60.5349V60.5344V60.5339V60.5334V60.5329V60.5325V60.532V60.5315V60.531V60.5305V60.53V60.5295V60.5291V60.5286V60.5281V60.5276V60.5271V60.5266V60.5261V60.5256V60.5251V60.5246V60.5241V60.5236V60.5231V60.5226V60.5221V60.5216V60.5211V60.5205V60.52V60.5195V60.519V60.5185V60.5179V60.5174V60.5169V60.5163V60.5158V60.5152V60.5147V60.5141V60.5136V60.513V60.5125V60.5119V60.5113V60.5107V60.5102V60.5096V60.509V60.5084V60.5078V60.5072V60.5066V60.506V60.5053V60.5047V60.5041V60.5034V60.5028V60.5022V60.5015V60.5008V60.5002V60.4995V60.4988V60.4982V60.4975V60.4968V60.4961V60.4954V60.4946V60.4939V60.4932V60.4925V60.4917V60.491V60.4902V60.4894V60.4887V60.4879V60.4871V60.4863V60.4855V60.4847V60.4839V60.483V60.4822V60.4814V60.4805V60.4797V60.4788V60.4779V60.477V60.4761V60.4752V60.4743V60.4734V60.4724V60.4715V60.4705V60.4696V60.4686V60.4676V60.4666V60.4656V60.4646V60.4636V60.4626V60.4615V60.4605V60.4594V60.4583V60.4572V60.4561V60.455V60.4539V60.4528V60.4516V60.4505V60.4493V60.4481V60.447V60.4457V60.4445V60.4433V60.4421V60.4408V60.4396V60.4383V60.437V60.4357V60.4344V60.4331V60.4317V60.4304V60.429V60.4276V60.4262V60.4248V60.4234V60.422V60.4205V60.4191V60.4176V60.4161V60.4146V60.4131V60.4116V60.41V60.4085V60.4069V60.4053V60.4037V60.4021V60.4005V60.3988V60.3971V60.3955V60.3938V60.3921V60.3903V60.3886V60.3868V60.3851V60.3833V60.3815V60.3796V60.3778V60.3759V60.3741V60.3722V60.3703V60.3684V60.3664V60.3645V60.3625V60.3605V60.3585V60.3565V60.3544V60.3524V60.3503V60.3482V60.3461V60.344V60.3418V60.3396V60.3375V60.3353V60.333V60.3308V60.3285V60.3262V60.324V60.3216V60.3193V60.3169V60.3146V60.3122V60.3098V60.3073V60.3049V60.3024V60.2999V60.2974V60.2949V60.2923V60.2897V60.2871V60.2845V60.2819V60.2792V60.2766V60.2739V60.2711V60.2684V60.2656V60.2629V60.2601V60.2572V60.2544V60.2515V60.2486V60.2457V60.2428V60.2398V60.2369V60.2339V60.2308V60.2278V60.2247V60.2216V60.2185V60.2154V60.2122V60.209V60.2058V60.2026V60.1993V60.1961V60.1928V60.1894V60.1861V60.1827V60.1793V60.1759V60.1725V60.169V60.1655V60.162V60.1585V60.1549V60.1513V60.1477V60.144V60.1404V60.1367V60.133V60.1292V60.1255V60.1217V60.1179V60.114V60.1101V60.1062V60.1023V60.0984V60.0944V60.0928V60.0913V60.0897V60.0881V60.0865V60.085V60.0834V60.0818V60.0802V60.0787V60.0771V60.0755V60.074V60.0724V60.0708V60.0692V60.0677V60.0661V60.0645V60.0629V60.0614V60.0598V60.0582V60.0566V60.0551V60.0535V60.0519V60.0503V60.0488V60.0472V60.0456V60.0441V60.0425V60.0409V60.0393V60.0378V60.0362V60.0346V60.033V60.0315V60.0299V60.0283V60.0267V60.0252V60.0236V60.022V60.0205V60.0189V60.0173V60.0157V60.0142V60.0126V60.011V60.0094V60.0079V60.0063V60.0047V60.0031V60.0016V60V59.9984V59.9969V59.9953V59.9937V59.9921V59.9906V59.989V59.9874V59.9858V59.9843V59.9827V59.9811V59.9795V59.978V59.9764V59.9748V59.9733V59.9717V59.9701V59.9685V59.967V59.9654V59.9638V59.9622V59.9607V59.9591V59.9575V59.9559V59.9544V59.9528V59.9512V59.9496V59.9481V59.9465V59.9449V59.9434V59.9418V59.9402V59.9386V59.9371V59.9355V59.9339V59.9323V59.9308V59.9292V59.9276V59.926V59.9245V59.9229V59.9213V59.9198V59.9182V59.9166V59.915V59.9135V59.9119V59.9103V59.9087V59.9072V59.9056V59.904V59.9024V59.9009V59.8993V59.8977V59.8962V59.8946V59.893V59.8914V59.8899V59.8883V59.8867V59.8851V59.8836V59.882V59.8804V59.8788V59.8773V59.8757V59.8741V59.8726V59.871V59.8694V59.8678V59.8663V59.8647V59.8631V59.8615V59.86V59.8584V59.8568V59.8552V59.8537V59.8521V59.8505V59.8489V59.8474V59.8458V59.8442V59.8427V59.8411V59.8395V59.8379V59.8364V59.8348V59.8332V59.8316V59.8301V59.8285V59.8269V59.8253V59.8238V59.8222V59.8206V59.8191V59.8175V59.8159V59.8143V59.8128V59.8112V59.8096V59.808V59.8065V59.8049V59.8033V59.8017V59.8002V59.7986V59.797V59.7955V59.7939V59.7923V59.7907V59.7892V59.7876V59.786V59.7844V59.7829V59.7813V59.7797V59.7781V59.7766V59.775V59.7734V59.7719V59.7703V59.7687V59.7671V59.7656V59.764V59.7624V59.7608V59.7593V59.7577V59.7561V59.7545V59.753V59.7514V59.7498V59.7483V59.7467V59.7451V59.7435V59.742V59.7404V59.7388V59.7372V59.7357V59.7341V59.7325V59.7309V59.7294V59.7278V59.7262V59.7247V59.7231V59.7215V59.7199V59.7184V59.7168V59.7152V59.7136V59.7121V59.7105V59.7089V59.7073V59.7058V59.7042V59.7026V59.701V59.6995V59.6979V59.6963V59.6948V59.6932V59.6916V59.69V59.6885V59.6869V59.6853V59.6837V59.6822V59.6806V59.679V59.6774V59.6759V59.6743V59.6727V59.6712V59.6696V59.668V59.6664V59.6649V59.6633V59.6617V59.6601V59.6586V59.657V59.6554V59.6538V59.6523V59.6507V59.6491V59.6476V59.646V59.6444V59.6428V59.6413V59.6397V59.6381V59.6365V59.635V59.6334V59.6318V59.6302V59.6287V59.6271V59.6255V59.624V59.6224V59.6208V59.6192V59.6177V59.6161V59.6145V59.6129V59.6114V59.6098V59.6082V59.6066V59.6051V59.6035V59.6019V59.6004V59.5988V59.5972V59.5956V59.5941V59.5925V59.5909V59.5893V59.5878V59.5862V59.5846V59.583V59.5815V59.5799V59.5783V59.5768V59.5752V59.5736V59.572V59.5705V59.5689V59.5673V59.5657V59.5642V59.5626V59.561V59.5594V59.5579V59.5563V59.5547V59.5531V59.5516V59.55V59.5484V59.5469V59.5453V59.5437V59.5421V59.5406V59.539V59.5374V59.5358V59.5343V59.5327V59.5311V59.5295V59.528V59.5271C107.982 59.4996 107.937 59.4723 107.893 59.4453V60.0944V60.9V61.7056M101.63 71.6475C101.909 71.1432 102.182 70.752 102.506 70.4195C102.89 70.0251 103.34 69.7193 103.945 69.4031L101.63 71.6475ZM108.744 65.1919C109.554 64.4455 109.623 63.4977 108.93 62.6466C108.583 62.2208 108.341 62.0333 107.893 61.7056M108.744 65.1919C108.323 65.5795 107.809 65.8806 107.302 66.1565L108.744 65.1919ZM107.893 61.7056H108.027V61.704V61.7024V61.7008V61.6993V61.6977V61.6961V61.6946V61.693V61.6914V61.6898V61.6883V61.6867V61.6851V61.6835V61.682V61.6804V61.6788V61.6772V61.6757V61.6741V61.6725V61.671V61.6694V61.6678V61.6662V61.6647V61.6631V61.6615V61.6599V61.6584V61.6568V61.6552V61.6536V61.6521V61.6505V61.6489V61.6474V61.6458V61.6442V61.6426V61.6411V61.6395V61.6379V61.6375C108.009 61.6243 107.99 61.6108 107.972 61.5972L107.893 61.7056Z" fill="#BCBCBC" stroke="#EAEAEA" stroke-width="0.268528"/>
<path d="M98.2252 16.6234C98.3675 16.6861 98.5254 16.7291 98.6501 16.8148C101.582 18.8317 105.223 18.8058 108.14 16.7454C108.225 16.6855 108.332 16.6539 108.429 16.6092L108.414 16.5929C108.4 16.6943 108.417 16.8125 108.368 16.8944C107.251 18.7434 105.553 19.7538 103.316 19.7364C101.046 19.7187 99.3424 18.6789 98.2657 16.7637C98.2415 16.7204 98.2513 16.66 98.2451 16.6074L98.2255 16.6237L98.2252 16.6234Z" fill="#FAFAFA"/>
<rect x="98.7622" y="20.3523" width="9.12996" height="45.6497" fill="#FAFAFA"/>
<path d="M109.013 25.7894C109 25.469 108.724 25.2081 108.404 25.2308L108.879 25.795M109.013 25.7894L108.879 25.795M109.013 25.7894C109.013 25.7894 109.013 25.7894 109.013 25.7893L108.879 25.795M109.013 25.7894C109.027 26.1211 108.773 26.3849 108.435 26.3749L108.439 26.2407M108.879 25.795C108.89 26.0497 108.698 26.2484 108.439 26.2407M108.439 26.2407L108.435 26.3749C108.284 26.3704 108.152 26.3239 108.05 26.2318C107.95 26.1405 107.891 26.0152 107.867 25.8744C107.867 25.8744 107.867 25.8743 107.867 25.8743L108 25.8516L108.439 26.2407ZM98.6296 38.5924L98.6281 38.6022V38.6122V38.6137V38.6153V38.6169V38.6184V38.62V38.6215V38.623V38.6246V38.6261V38.6276V38.6291V38.6306V38.6321V38.6336V38.6351V38.6366V38.6381V38.6395V38.641V38.6424V38.6439V38.6453V38.6468V38.6482V38.6497V38.6511V38.6525V38.6539V38.6553V38.6567V38.6581V38.6595V38.6609V38.6623V38.6637V38.665V38.6664V38.6677V38.6691V38.6705V38.6718V38.6731V38.6745V38.6758V38.6771V38.6784V38.6798V38.6811V38.6824V38.6837V38.685V38.6862V38.6875V38.6888V38.6901V38.6914V38.6926V38.6939V38.6951V38.6964V38.6976V38.6989V38.7001V38.7013V38.7026V38.7038V38.705V38.7062V38.7074V38.7086V38.7098V38.711V38.7122V38.7134V38.7146V38.7158V38.7169V38.7181V38.7193V38.7204V38.7216V38.7227V38.7239V38.725V38.7262V38.7273V38.7284V38.7296V38.7307V38.7318V38.7329V38.734V38.7351V38.7362V38.7373V38.7384V38.7395V38.7406V38.7417V38.7428V38.7439V38.7449V38.746V38.7471V38.7481V38.7492V38.7502V38.7513V38.7523V38.7534V38.7544V38.7555V38.7565V38.7575V38.7586V38.7596V38.7606V38.7616V38.7626V38.7636V38.7647V38.7657V38.7667V38.7677V38.7687V38.7696V38.7706V38.7716V38.7726V38.7736V38.7746V38.7755V38.7765V38.7775V38.7784V38.7794V38.7803V38.7813V38.7823V38.7832V38.7841V38.7851V38.786V38.787V38.7879V38.7888V38.7898V38.7907V38.7916V38.7925V38.7935V38.7944V38.7953V38.7962V38.7971V38.798V38.7989V38.7998V38.8007V38.8016V38.8025V38.8034V38.8043V38.8052V38.8061V38.807V38.8079V38.8087V38.8096V38.8105V38.8114V38.8122V38.8131V38.814V38.8149V38.8157V38.8166V38.8174V38.8183V38.8192V38.82V38.8209V38.8217V38.8226V38.8234V38.8243V38.8251V38.8259V38.8268V38.8276V38.8285V38.8293V38.8301V38.831V38.8318V38.8326V38.8335V38.8343V38.8351V38.8359V38.8368V38.8376V38.8384V38.8392V38.8401V38.8409V38.8417V38.8425V38.8433V38.8441V38.8449V38.8457V38.8466V38.8474V38.8482V38.849V38.8498V38.8506V38.8514V38.8522V38.853V38.8538V38.8546V38.8554V38.8562V38.857V38.8578V38.8586V38.8594V38.8602V38.861V38.8618V38.8626V38.8634V38.8641V38.8649V38.8657V38.8665V38.8673V38.8681V38.8689V38.8697V38.8705V38.8713V38.872V38.8728V38.8736V38.8744V38.8752V38.876V38.8768V38.8776V38.8783V38.8791V38.8799V38.8807V38.8815V38.8823V38.8831V38.8839V38.8846V38.8854V38.8862V38.887V38.8878V38.8886V38.8894V38.8902V38.8909V38.8917V38.8925V38.8933V38.8941V38.8949V38.8957V38.8965V38.8973V38.8981V38.8988V38.8996V38.9004V38.9012V38.902V38.9028V38.9036V38.9044V38.9052V38.906V38.9068V38.9076V38.9084V38.9092V38.91V38.9108V38.9116V38.9124V38.9132V38.914V38.9149V38.9157V38.9165V38.9173V38.9181V38.9189V38.9197V38.9205V38.9214V38.9222V38.923V38.9238V38.9246V38.9255V38.9263V38.9271V38.9279V38.9288V38.9296V38.9304V38.9313V38.9321V38.9329V38.9338V38.9346V38.9355V38.9363V38.9371V38.938V38.9388V38.9397V38.9405V38.9414V38.9423V38.9429C97.4645 38.4167 96.575 37.8115 95.5906 36.9395C94.0591 35.5825 93.1061 33.9115 93.0013 31.8666L92.8673 31.8735L93.0013 31.8666C92.8721 29.3464 93.7518 27.255 95.851 25.7642C97.2697 24.757 98.898 24.2792 100.611 24.024L100.591 23.8912L100.611 24.024C102.014 23.815 103.426 23.7552 104.845 23.8424L104.845 23.8424C105.24 23.8666 105.643 23.8317 106.028 23.7721L106.028 23.7721C107.308 23.5739 108.428 23.8289 109.397 24.7177L109.488 24.6188L109.397 24.7177C110.21 25.4635 110.926 26.2689 111.424 27.2408C111.55 27.4859 111.627 27.687 111.66 27.8528C111.693 28.0172 111.679 28.1386 111.634 28.233C111.588 28.3274 111.502 28.4128 111.354 28.4891C111.205 28.566 111.001 28.6296 110.732 28.6823C109.444 28.9352 108.152 28.8134 106.849 28.614L106.849 28.614C106.539 28.5666 106.232 28.4936 105.92 28.4193C105.875 28.4085 105.83 28.3978 105.784 28.3871C105.224 28.2546 104.729 28.0039 104.351 27.5845C104.072 27.2748 103.752 27.2086 103.39 27.2091L103.39 27.2091C102.212 27.211 101.037 27.3017 99.8938 27.6402L99.8938 27.6402C99.3548 27.7999 98.8095 27.998 98.3101 28.2691L98.3101 28.2691C96.1957 29.4173 95.6592 31.9883 97.1599 33.8785L97.2651 33.795L97.1599 33.8785C97.5378 34.3544 98.0855 34.7729 98.5647 35.1391C98.586 35.1554 98.6071 35.1716 98.6281 35.1876C98.6281 35.2497 98.6282 35.3059 98.6282 35.3622C98.6283 35.5133 98.6284 35.6642 98.6281 35.9267C98.6273 36.4696 98.6274 36.4993 98.6276 36.5906C98.6278 36.6662 98.6281 36.7839 98.6281 37.2695L98.6281 37.2727C98.629 37.311 98.6318 37.6267 98.6329 37.9436C98.6335 38.1017 98.6337 38.2593 98.633 38.3818C98.6327 38.4431 98.6321 38.4951 98.6314 38.5339C98.6307 38.5659 98.6299 38.5831 98.6297 38.5895C98.6295 38.5919 98.6295 38.5928 98.6296 38.5924Z" fill="#BCBCBC" stroke="#EAEAEA" stroke-width="0.268528"/>
<path d="M111.083 46.0006L111.083 46.0006L100.488 49.8339L100.484 49.6996C100.484 49.6996 100.484 49.6996 100.484 49.6996C99.8741 49.7149 99.2639 49.8031 98.6694 49.9104C98.1315 50.0074 97.6386 50.2436 97.2383 50.6498L97.334 50.744L97.2383 50.6498C97.0225 50.8689 96.8719 51.1151 96.8069 51.3828C96.7417 51.6517 96.765 51.9338 96.8839 52.2188C96.944 52.3629 97.0768 52.5208 97.2284 52.6748C97.3835 52.8324 97.5729 53.0001 97.7618 53.1632C97.816 53.21 97.87 53.2563 97.9233 53.3019C98.0576 53.4172 98.1874 53.5284 98.3028 53.6327C98.4475 53.7635 98.5604 53.8751 98.628 53.9622L98.628 54.7238L98.628 56.8129C98.4065 56.596 98.1403 56.3526 97.8542 56.0938C97.7891 56.0349 97.7229 55.9751 97.6558 55.9146C97.3146 55.6065 96.9518 55.279 96.6011 54.9453C96.1814 54.546 95.782 54.1406 95.461 53.7532C95.1382 53.3637 94.9031 53.0023 94.8011 52.691L94.8011 52.691C94.3124 51.2002 94.8085 49.6655 96.0985 48.614L96.0985 48.614C96.7826 48.0561 97.5758 47.7101 98.4315 47.5654C99.3563 47.409 100.299 47.325 101.241 47.274L101.241 47.274C101.74 47.2469 102.242 47.2444 102.747 47.242C102.781 47.2418 102.815 47.2416 102.85 47.2415C103.388 47.2387 103.931 47.234 104.472 47.1968C105.208 47.1463 105.944 47.0032 106.654 46.8175C107.485 46.6003 108.085 46.0388 108.463 45.2835C108.68 44.8486 108.775 44.3519 108.609 43.864C108.582 43.7839 108.554 43.7018 108.527 43.6184C108.385 43.1942 108.233 42.737 108.026 42.3385L108.026 40.4919L108.026 38.4538C108.254 38.7255 108.527 39.0301 108.814 39.3509C109.09 39.6589 109.379 39.9819 109.655 40.3049C110.34 41.1068 110.944 41.9117 111.144 42.5537C111.508 43.7247 111.535 44.8583 111.083 46.0006Z" fill="#BCBCBC" stroke="#EAEAEA" stroke-width="0.268528"/>
</svg>
