<svg width="260" height="91" viewBox="0 0 260 91" fill="none" xmlns="http://www.w3.org/2000/svg">
<path d="M59.7798 1.59782C59.419 3.92523 57.4811 5.32788 56.4488 7.24907C47.7318 23.4405 39.045 39.6487 30.3885 55.8737C30.1937 56.3309 30.0261 56.7993 29.8867 57.2763C36.9765 57.2763 43.8344 57.2931 50.69 57.2763C52.6255 57.2763 51.5837 56.0696 51.3017 55.3647C49.5478 50.9823 47.7963 46.5975 45.9109 42.2725C45.2801 40.8244 45.4163 39.7252 46.1141 38.3226C48.3722 33.7824 50.8453 29.3642 53.5933 24.5827C63.7679 40.8841 72.4587 57.5798 81.9379 73.6972C81.0753 74.7725 80.2653 74.3758 79.5938 74.3758C54.1421 74.4013 28.6896 74.4085 3.23627 74.3973C0.0271318 74.3973 0.000846922 74.3782 1.36527 71.6542C7.07148 60.2656 14.0011 49.5629 20.1016 38.3966C22.3621 34.258 24.2976 29.9018 26.9357 26.0236C32.1926 18.3126 36.2548 9.92057 41.3063 2.11396C42.464 1.74277 43.6751 1.56594 44.8906 1.59065C49.8537 1.61694 54.8287 1.59543 59.7798 1.59782ZM51.1106 58.1413L51.1249 57.8618H30.2595V58.1413H51.1106ZM121.525 47.9213C122.737 48.2702 123.451 48.4685 124.154 48.6788C133.602 51.4937 136.281 62.1151 129.619 69.4415C126.787 72.5478 123.42 73.8525 119.482 74.1441C110.323 74.8251 101.145 74.328 91.9764 74.5049C90.471 74.5359 90.0169 73.9696 90.0193 72.5287C90.0528 56.7705 90.0528 41.0116 90.0193 25.2518C90.0193 23.9256 90.2201 23.1466 91.8545 23.1896C100.923 23.4286 110.015 22.7524 119.064 23.6675C126.909 24.4704 131.984 29.6055 131.853 36.5352C131.772 42.1434 128.985 45.3096 121.525 47.9213ZM103.539 43.9929C106.713 45.1064 109.895 45.0491 113.083 44.0622C113.314 43.9055 113.561 43.7727 113.819 43.6656C116.882 42.7217 118.12 41.1326 118.029 38.258C117.912 34.8123 116.665 33.0536 113.367 32.5901C110.782 32.2245 108.11 32.4801 105.482 32.3057C103.809 32.1958 103.42 32.8864 103.472 34.4204C103.587 37.6129 103.53 40.8053 103.539 43.9977V43.9929ZM103.494 53.1424C102.56 56.8753 102.571 60.7822 103.527 64.5094C107.293 64.5286 111.083 65.0136 114.811 64.1677C117.666 63.5178 118.904 61.8547 118.93 58.9323C118.959 55.9095 117.628 54.0337 114.756 53.4053C111.033 52.5952 107.257 52.8222 103.494 53.1472V53.1424ZM177.916 76.438C181.125 76.395 184.337 76.3568 187.546 76.3042C188.439 76.2898 189.111 76.3639 189.457 77.4703C190.277 80.0844 192.463 80.6077 194.874 80.6412C197.503 80.6746 199.575 79.9052 201.087 77.4942C203.028 74.3878 202.249 71.1619 202.282 66.8894C197.128 73.6375 190.958 74.9565 184.339 71.9624C179.682 69.8548 176.609 65.8428 175.753 60.5309C176.322 60.053 176.231 59.4126 176.21 58.7937C176.21 58.5858 176.253 58.1963 175.88 58.3277C175.722 58.3827 175.679 58.7698 175.584 59.0087C172.489 46.8484 181.297 36.7861 193.596 38.4301C196.205 38.779 198.487 39.7945 200.327 41.687C201.044 42.4349 201.673 43.2976 202.913 42.9654C202.984 43.0179 203.066 43.0561 203.152 43.0777C203.226 43.0777 203.364 43.0108 203.367 42.9678C203.45 41.8184 203.845 40.6332 202.989 39.589C202.989 39.1398 203.247 38.8578 203.663 38.896C207.393 39.2377 211.219 38.0191 214.872 39.5675C214.05 40.1912 214.285 41.0944 214.282 41.9092C214.271 51.8688 214.271 61.8252 214.282 71.7784C214.282 72.5956 214.043 73.4941 214.825 74.1464C214.512 80.7416 210.165 85.6162 203.116 87.179C201.921 87.4418 200.698 87.5135 199.486 87.6712C196.33 86.8767 193.027 86.8767 189.871 87.6712C183.056 87.112 178.767 84.2016 177.445 79.2361C178.262 78.4261 177.789 77.3795 177.916 76.438ZM202.263 58.1366C202.333 58.2012 202.414 58.2537 202.502 58.2919C202.583 58.3039 202.666 58.2914 202.741 58.256C202.741 56.2345 203.713 54.1269 202.263 52.2201C200.573 52.2989 201.4 50.8819 201.121 50.1842C200.11 47.6585 198.705 45.7134 195.684 45.5843C192.87 45.4625 190.733 46.8556 189.606 49.7445C188.363 52.9226 188.375 56.2202 189.092 59.4962C189.89 63.145 192.122 65.0734 195.254 65.0495C198.272 65.0256 200.308 63.1713 201.228 59.642C201.362 59.0302 200.922 57.9573 202.263 58.1366ZM259.21 57.1688C259.473 65.2072 253.585 74.4595 243.32 75.1524C238.66 75.4678 234.044 75.2146 229.592 73.8262C222.395 71.5825 217.097 62.875 218.483 53.5295C219.874 44.1482 225.57 38.9988 235.798 38.0119C240.828 37.534 245.834 37.816 250.436 40.2198C256.104 43.1781 259.129 47.8401 259.196 54.3014C258.276 55.2596 258.266 56.2154 259.21 57.1688ZM245.994 53.3456C245.191 50.1197 244.636 46.7385 240.945 45.3215C239.819 44.3442 238.698 44.3131 237.585 45.3478C235.838 46.1674 234.304 47.2475 233.649 49.1519C231.996 53.9477 231.965 58.7865 233.649 63.5632C234.467 65.8691 236.135 67.2455 238.739 67.3578C241.401 67.4701 243.21 66.3112 244.5 64.0507C245.365 62.5381 245.291 60.777 245.989 59.2381C246.163 59.4245 246.433 60.3756 246.531 59.5966C246.806 57.4028 246.806 55.1833 246.531 52.9895C246.441 52.2225 246.171 53.1783 245.991 53.3527L245.994 53.3456ZM153.588 44.1626C151.932 45.0156 150.601 46.1363 150.41 48.1388C150.293 49.3813 149.545 49.5725 148.455 49.5558C145.349 49.5008 142.226 49.4865 139.112 49.5558C137.693 49.5868 137.301 49.0181 137.452 47.6943C137.865 44.0909 139.741 41.4361 143.017 40.1028C149.87 37.3166 156.948 36.8793 164.026 39.1947C167.978 40.4875 170.575 43.1757 171.036 47.5246C169.842 55.2428 170.915 62.9802 170.487 70.7031H171.204V49.5677C171.82 54.2607 171.316 58.9729 171.481 63.6659C171.586 66.6815 171.655 69.6971 171.825 72.7103C171.875 73.5897 172.229 74.5168 170.843 74.4523C167.199 74.2826 163.529 74.9063 159.908 74.0939C160.659 72.6195 160.288 71.1285 159.868 69.6254L159.646 72.6386C159.438 71.6828 159.23 70.7414 159.005 69.7043C154.704 75.0688 147.003 76.7749 140.706 73.8764C137.397 72.3543 135.975 69.5633 135.385 66.1845C135.772 65.3963 135.974 64.5304 135.977 63.6523C135.98 62.7743 135.783 61.907 135.401 61.1163C136.037 56.8629 138.888 54.4782 142.649 53.2309C146.322 52.0146 150.138 51.2213 154.076 51.5008C155.395 52.3324 156.714 52.3324 158.033 51.5008C159.526 50.4327 159.684 47.5294 158.245 45.7421C157.736 45.1088 156.972 44.6811 156.322 44.1602C155.414 43.4266 154.506 42.9654 153.588 44.1626ZM151.865 67.3124C151.802 67.3821 151.753 67.4632 151.719 67.5513C151.714 67.6356 151.736 67.7193 151.782 67.7903C152.702 67.6923 153.815 68.6553 154.503 67.3124C155.22 66.8942 156.006 66.5477 156.666 66.0459C158.468 64.6743 160.219 60.0315 159.16 58.3492C157.832 56.2393 155.564 57.7399 153.758 57.8116C151.311 57.9096 149.015 58.7483 148.465 61.5847C147.915 64.421 149.344 66.2084 151.865 67.3124Z" fill="#FAFAFA"/>
<path d="M233.982 31.5697C235.935 28.6497 237.932 25.7656 240.434 23.2661C244.735 24.2219 249.099 23.4597 253.426 23.6938C249.586 26.891 245.887 30.2722 241.55 32.8266C240.754 31.835 239.638 32.2818 238.656 32.2197C237.077 32.1217 235.447 32.4682 233.982 31.5697Z" fill="#FAFAFA"/>
<path d="M214.819 74.1512C214.04 73.4989 214.279 72.6004 214.277 71.7832C214.266 61.8252 214.266 51.8688 214.277 41.914C214.277 41.0992 214.038 40.1959 214.867 39.5723C215.085 51.097 215.178 62.6241 214.819 74.1512Z" fill="#FAFAFA"/>
<path d="M171.199 49.5772V70.7127H170.482C170.91 62.9897 169.847 55.2524 171.032 47.5342L171.199 49.5772Z" fill="#FAFAFA"/>
<path d="M59.7782 1.59782C54.8151 1.59782 49.852 1.61694 44.889 1.58109C43.6735 1.55638 42.4624 1.73321 41.3047 2.1044C41.362 1.06734 42.0598 0.993269 42.8818 0.995658C48.2463 1.01477 53.6132 1.01 58.9801 1.01239C59.3887 1.01477 59.6969 1.15098 59.7782 1.59782Z" fill="#FAFAFA"/>
<path d="M253.424 23.6939C249.096 23.4549 244.735 24.2267 240.432 23.2662C244.797 22.8623 249.173 23.0869 253.543 23.161C253.6 23.161 253.717 23.3355 253.701 23.3689C253.62 23.4865 253.527 23.5954 253.424 23.6939Z" fill="#FAFAFA"/>
<path d="M233.984 31.5698C235.449 32.4683 237.078 32.1218 238.655 32.2198C239.642 32.2819 240.753 31.8351 241.549 32.8267C239.198 32.8865 236.849 32.9581 234.498 32.9988C232.988 33.025 232.696 32.5686 233.984 31.5698Z" fill="#FAFAFA"/>
<path d="M189.863 87.6784C193.019 86.8839 196.323 86.8839 199.479 87.6784H189.863Z" fill="#FAFAFA"/>
<path d="M135.396 61.1355C135.778 61.9262 135.975 62.7934 135.972 63.6715C135.969 64.5496 135.767 65.4155 135.38 66.2037C134.969 64.5385 134.975 62.7979 135.396 61.1355Z" fill="#FAFAFA"/>
<path d="M159.641 72.6577L159.863 69.6445C160.284 71.1475 160.654 72.6386 159.904 74.113C159.746 73.9095 159.64 73.6709 159.594 73.4176C159.548 73.1642 159.564 72.9035 159.641 72.6577Z" fill="#FAFAFA"/>
<path d="M202.979 39.5891C203.829 40.6333 203.44 41.8185 203.356 42.9679C203.356 43.0109 203.215 43.0802 203.141 43.0778C203.055 43.0562 202.974 43.018 202.902 42.9655C202.929 41.8408 202.955 40.7154 202.979 39.5891Z" fill="#FAFAFA"/>
<path d="M158.027 51.52C156.708 52.3516 155.389 52.3516 154.07 51.52H158.027Z" fill="#FAFAFA"/>
<path d="M177.915 76.438C177.788 77.3795 178.261 78.4261 177.437 79.2433C177.59 78.309 175.908 77.0521 177.915 76.438Z" fill="#FAFAFA"/>
<path d="M153.588 44.1627C154.505 42.9679 155.413 43.4267 156.317 44.1794L153.588 44.1627Z" fill="#FAFAFA"/>
<path d="M259.209 57.169C258.265 56.2131 258.274 55.2573 259.194 54.3015C259.47 55.2367 259.475 56.231 259.209 57.169ZM175.57 59.0089C175.666 58.7699 175.709 58.3828 175.867 58.3279C176.239 58.1965 176.189 58.5859 176.196 58.7938C176.215 59.4127 176.309 60.0627 175.74 60.531C175.683 60.0229 175.626 59.5155 175.57 59.0089Z" fill="#FAFAFA"/>
<path d="M51.1089 58.1414H30.2578V57.8618H51.1232L51.1089 58.1414Z" fill="#FAFAFA"/>
<path d="M103.493 53.1472L103.526 64.5142C102.57 60.7869 102.559 56.8801 103.493 53.1472Z" fill="#FAFAFA"/>
<path d="M103.539 43.9978L113.083 44.0671C109.895 45.054 106.712 45.1113 103.539 43.9978Z" fill="#FAFAFA"/>
<path d="M202.261 58.1367C202.261 56.1661 202.255 54.194 202.242 52.2202C203.697 54.1318 202.72 56.2346 202.72 58.2562C202.646 58.2915 202.563 58.304 202.481 58.292C202.4 58.252 202.326 58.1996 202.261 58.1367Z" fill="#FAFAFA"/>
<path d="M245.99 59.2452V53.3527C246.165 53.1663 246.435 52.2152 246.533 52.9966C246.807 55.1904 246.807 57.4099 246.533 59.6037C246.439 60.3827 246.169 59.4316 245.99 59.2452Z" fill="#FAFAFA"/>
<path d="M240.944 45.3288L237.584 45.355C238.698 44.3204 239.818 44.3514 240.944 45.3288Z" fill="#FAFAFA"/>
<path d="M151.865 67.3124L154.494 67.2837C153.805 68.6362 152.692 67.6732 151.772 67.7616C151.726 67.6906 151.705 67.6069 151.71 67.5226C151.749 67.444 151.801 67.3728 151.865 67.3124Z" fill="#FAFAFA"/>
</svg>
