<svg width="180" height="180" viewBox="0 0 180 180" fill="none" xmlns="http://www.w3.org/2000/svg">
<g clip-path="url(#clip0_88_5042)">
<path fill-rule="evenodd" clip-rule="evenodd" d="M0 0H180V180H0V0Z" fill="#025951"/>
<path fill-rule="evenodd" clip-rule="evenodd" d="M90.0005 15.1821C131.075 15.1821 164.818 48.8735 164.818 90C164.818 131.074 131.075 164.818 90.0005 164.818C48.873 164.818 15.1816 131.074 15.1816 90C15.1816 48.8735 48.874 15.1821 90.0005 15.1821Z" fill="#FAFAFA"/>
<path fill-rule="evenodd" clip-rule="evenodd" d="M90.0008 19.98C70.3336 19.98 51.1416 28.5207 37.9598 43.1267C26.4654 55.9387 20.0332 72.811 20.0332 89.9999C20.0332 109.666 28.5226 128.808 43.1799 141.989C55.9396 153.483 72.8119 159.968 90.0008 159.968C109.668 159.968 128.859 151.426 141.989 136.822C153.535 124.062 159.968 107.19 159.968 89.9999C159.968 70.2804 151.478 51.1407 136.822 37.9589C124.063 26.4654 107.19 19.98 90.0008 19.98Z" fill="#025951"/>
<path fill-rule="evenodd" clip-rule="evenodd" d="M89.473 87.2584L96.275 78.0845H103.392L92.3735 92.372V101.23H86.5726V92.372L75.5535 78.0845H82.6711L89.473 87.2584ZM69.1203 78.0845L80.5092 101.23H73.9706L71.8621 96.6433H60.1566L58.048 101.23H51.5103L62.8983 78.0845H69.1203ZM26.7285 78.0845H41.0179C45.0249 78.0845 49.7174 78.7176 49.7174 83.6734C49.7174 86.2041 48.241 87.5227 46.0792 88.4182C49.0842 89.1036 50.9827 91.371 50.9827 94.4825C50.9827 99.4383 47.239 101.231 42.8631 101.231H26.7285V78.0845ZM127.015 97.0645V101.23H104.551V78.0845H126.381V82.2494H110.405V87.3116H125.854V91.4765H110.405V97.0645H127.015ZM136.292 92.0032V101.23H130.494V78.0845H146.048C150.581 78.0845 155.063 79.6664 155.063 84.9911C155.063 89.0513 152.743 91.2122 149.053 92.0032L155.958 101.23H149.053L142.989 92.0032H136.292ZM77.5565 26.4656H91.8449C95.852 26.4656 100.544 27.0978 100.544 32.1077C100.544 34.5852 99.069 35.9037 96.9072 36.8525C99.9113 37.5379 101.81 39.752 101.81 42.9167C101.81 47.8735 98.067 49.6655 93.6902 49.6655H77.5565V26.4656ZM92.8479 52.2484L104.183 75.3951H97.6972L95.5886 70.8082H83.8841L81.7214 75.3951H75.2369L86.6258 52.2484H92.8479ZM102.707 122.69V126.856H78.6631V103.71H102.127V107.875H84.5163V112.936H101.599V117.102H84.5163V122.69H102.707ZM84.5163 143.464V152.691H78.6631V129.491H94.2701C98.8038 129.491 103.235 131.074 103.235 136.398C103.235 140.458 100.967 142.674 97.276 143.463L104.183 152.69H97.276L91.1604 143.463L84.5163 143.464Z" fill="#FAFAFA"/>
<path fill-rule="evenodd" clip-rule="evenodd" d="M69.9644 92.4775L66.0629 84.0422L66.0106 84.0945L65.9574 84.0422L62.1081 92.4775H69.9644ZM32.5293 86.995H41.0177C42.5996 86.995 43.9705 86.4683 44.076 84.6754C44.2338 82.7246 42.6529 82.2502 41.0177 82.2502H32.5293V86.995ZM32.5293 97.0644H41.0177C43.1795 97.0644 45.0248 96.4313 45.0248 93.9548C45.0248 91.2644 43.2328 91.002 41.0177 91.002H32.5293V97.0644ZM136.293 87.8382H145.416C147.263 87.8382 149.159 87.3116 149.159 85.0442C149.159 82.7769 147.315 82.2493 145.416 82.2493H136.293V87.8382ZM83.3573 35.3761H91.8448C93.4276 35.3761 94.7976 34.8494 94.9563 33.1087C95.0618 31.1057 93.4809 30.6836 91.8448 30.6836H83.3573V35.3761ZM83.3573 45.4464H91.8448C94.0608 45.4464 95.9051 44.8142 95.9051 42.3358C95.9051 39.6997 94.0608 39.4363 91.8448 39.4363H83.3573V45.4464ZM93.6377 66.59L89.7372 58.1539V58.2594L89.6849 58.1539L85.7824 66.59H93.6377ZM84.5171 139.245H93.5845C95.483 139.245 97.3291 138.719 97.3291 136.503C97.3291 134.236 95.483 133.709 93.5845 133.709H84.5171V139.245Z" fill="#025951"/>
</g>
<defs>
<clipPath id="clip0_88_5042">
<rect width="180" height="180" fill="white"/>
</clipPath>
</defs>
</svg>
