<svg width="260" height="129" viewBox="0 0 260 129" fill="none" xmlns="http://www.w3.org/2000/svg">
<g clip-path="url(#clip0_88_5049)">
<path fill-rule="evenodd" clip-rule="evenodd" d="M83.2617 0H177.927V94.9406H83.2617V0Z" fill="#FAFAFA"/>
<path d="M240.116 122.22V123.7H254.858V122.613L236.603 116.668L234.816 116.085V106.092H237.399H259.992V112.612H254.842V111.258H239.982V112.344L258.22 118.282L259.992 118.857V128.842H257.449H237.564L235.005 128.85V122.22H240.124H240.116ZM204.993 128.858V106.084H207.576H226.689V108.667L226.705 117.817V120.4H224.13H221.814L228.665 128.858H221.554L214.703 120.4H210.151V128.858H204.985H204.993ZM210.159 111.25V115.235H221.554V111.25H210.159ZM196.851 128.858H175.635V106.084H196.851V111.25H180.809V114.888H196.851V120.054H180.809V123.692H196.851V128.858ZM136.229 128.858V106.084H168.178V108.667L168.217 128.858H163.067L163.036 111.25H154.68V128.858H149.514V111.25H141.387V128.858H136.221H136.229ZM97.0511 128.858V106.084H129V108.667L129.039 128.858H123.889L123.858 111.25H115.502V128.858H110.336V111.25H102.209V128.858H97.0433H97.0511ZM88.7115 128.858H67.4964V106.084H88.7115V111.25H72.6702V114.888H88.7115V120.054H72.6702V123.692H88.7115V128.858ZM38.7842 106.084H59.9994V128.858H36.2012V106.084H38.7842ZM54.8255 111.25H41.3672V123.684H54.8255V111.25ZM0 128.858V94.0745H26.9954V112.982H24.4203H16.9154L29.7438 128.858H22.6327L9.80434 112.982H5.17386V128.858H0ZM5.16598 99.2404V107.808H21.8373V99.2404H5.16598Z" fill="#FAFAFA"/>
<path d="M151.452 84.0731V84.1361L151.389 85.3961L150.176 85.7268C141.876 87.9712 130.89 88.6012 121.101 87.6168C119.156 87.42 117.29 87.168 115.534 86.8608C113.738 86.5458 112.014 86.1678 110.376 85.7268L110.368 85.719L109.163 85.3882L109.1 84.1361C108.202 64.9527 111.486 46.6512 118.66 29.3421C120.038 26.0109 121.59 22.6798 123.291 19.3645C125 16.0255 126.834 12.7731 128.78 9.60738L128.811 9.55225L130.276 7.18188L131.733 9.55225C141.891 26.0582 148.278 43.6115 150.601 62.0941C151.05 65.6535 151.341 69.2839 151.483 72.9851C151.625 76.647 151.609 80.3482 151.436 84.0652L151.452 84.0731ZM148.073 82.7107C148.191 79.482 148.191 76.2847 148.073 73.1111C147.939 69.5831 147.648 66.0552 147.199 62.5114C145.057 45.4385 139.332 29.1688 130.284 13.789C128.882 16.1751 127.567 18.5533 126.354 20.9237C124.724 24.1052 123.22 27.3497 121.85 30.665C115.03 47.1316 111.817 64.5117 112.494 82.7186C113.66 83.0021 114.88 83.2541 116.14 83.4746C117.888 83.7817 119.668 84.0258 121.448 84.1991C130.37 85.0968 140.309 84.6007 148.073 82.7107Z" fill="#025951"/>
<path fill-rule="evenodd" clip-rule="evenodd" d="M130.251 21.9317C125.747 29.7988 122.227 39.6268 120.36 46.0134C123.305 57.8179 121.439 69.3705 115.328 78.411C117.777 79.1591 120.667 79.4111 123.361 79.4505C124.565 71.8905 125.369 64.5747 125.526 57.0147C126.802 56.5186 128.306 55.7547 129.708 54.8648C135.819 62.0862 137.441 70.977 136.378 79.4032C139.528 79.6316 143.505 79.2851 144.725 78.4897C141.654 67.5435 137.748 58.1487 132.937 52.337C142.158 44.1706 135.488 28.1529 130.251 21.9238V21.9317ZM130.487 27.7907C127.66 33.6024 125.353 39.6189 123.652 45.6432C124.361 48.0766 124.873 50.636 125.188 53.3292C133.519 52.2346 135.362 34.8939 130.487 27.7828V27.7907Z" fill="#025951"/>
</g>
<defs>
<clipPath id="clip0_88_5049">
<rect width="260" height="128.858" fill="white"/>
</clipPath>
</defs>
</svg>
