<svg width="48" height="49" viewBox="0 0 48 49" fill="none" xmlns="http://www.w3.org/2000/svg">
<path d="M7.33008 26.1363L24.0005 42.7045L40.2619 26.5454" stroke="#FAFAFA" stroke-width="2" stroke-miterlimit="10"/>
<path d="M43.1248 22.3523C43.6362 21.0227 43.943 19.5909 43.943 18.1591C43.943 11.7159 38.7271 6.5 32.2839 6.5C29.0112 6.5 26.0453 7.82955 23.9998 9.97727C21.8521 7.82955 18.9885 6.5 15.7157 6.5C9.27255 6.5 4.05664 11.7159 4.05664 18.1591C4.05664 19.4886 4.26119 20.7159 4.67028 21.9432" stroke="#FAFAFA" stroke-width="2" stroke-miterlimit="10"/>
<path d="M1.5 24.1931H13.1591L14.7955 18.3636L17.25 28.9999L18.6818 21.3295L19.6023 24.2954H26.1477L28.1932 17.9545L30.8523 28.9999L33.1023 21.3295L33.8182 24.1931H46.5" stroke="#FAFAFA" stroke-width="2" stroke-miterlimit="10"/>
</svg>
