<svg width="44" height="45" viewBox="0 0 44 45" fill="none" xmlns="http://www.w3.org/2000/svg">
<path d="M22 1.875C17.9208 1.875 13.9331 3.08464 10.5414 5.35094C7.14961 7.61724 4.50605 10.8384 2.94499 14.6072C1.38394 18.3759 0.975493 22.5229 1.77131 26.5237C2.56713 30.5246 4.53147 34.1996 7.41593 37.0841C10.3004 39.9685 13.9754 41.9329 17.9763 42.7287C21.9771 43.5245 26.1241 43.1161 29.8929 41.555C33.6616 39.994 36.8828 37.3504 39.1491 33.9586C41.4154 30.5669 42.625 26.5792 42.625 22.5C42.6188 17.0318 40.4439 11.7894 36.5773 7.92276C32.7107 4.05616 27.4682 1.88119 22 1.875ZM22 41.75C18.1927 41.75 14.4709 40.621 11.3053 38.5058C8.13964 36.3906 5.67232 33.3841 4.21533 29.8667C2.75834 26.3492 2.37713 22.4786 3.11989 18.7445C3.86266 15.0104 5.69604 11.5804 8.3882 8.88819C11.0804 6.19603 14.5104 4.36265 18.2445 3.61988C21.9787 2.87712 25.8492 3.25833 29.3667 4.71532C32.8841 6.17231 35.8906 8.63963 38.0058 11.8053C40.121 14.9709 41.25 18.6927 41.25 22.5C41.2442 27.6036 39.2142 32.4966 35.6054 36.1054C31.9966 39.7142 27.1036 41.7442 22 41.75Z" fill="#FAFAFA"/>
<path d="M22 4.625C18.4647 4.625 15.0087 5.67335 12.0692 7.63748C9.12966 9.60161 6.83858 12.3933 5.48566 15.6595C4.13274 18.9258 3.77876 22.5198 4.46847 25.9872C5.15818 29.4547 6.86061 32.6397 9.36047 35.1395C11.8603 37.6394 15.0454 39.3418 18.5128 40.0315C21.9802 40.7212 25.5742 40.3673 28.8405 39.0143C32.1067 37.6614 34.8984 35.3703 36.8625 32.4308C38.8267 29.4913 39.875 26.0353 39.875 22.5C39.8697 17.7609 37.9848 13.2174 34.6337 9.86629C31.2826 6.51523 26.7391 4.63028 22 4.625ZM22 39C18.7366 39 15.5465 38.0323 12.8331 36.2192C10.1197 34.4062 8.00484 31.8293 6.756 28.8143C5.50715 25.7993 5.18039 22.4817 5.81705 19.281C6.45371 16.0803 8.02518 13.1403 10.3327 10.8327C12.6403 8.52517 15.5803 6.9537 18.781 6.31704C21.9817 5.68039 25.2993 6.00714 28.3143 7.25599C31.3293 8.50483 33.9062 10.6197 35.7193 13.3331C37.5323 16.0465 38.5 19.2366 38.5 22.5C38.4949 26.8745 36.7549 31.0684 33.6616 34.1616C30.5684 37.2549 26.3745 38.9949 22 39Z" fill="#FAFAFA"/>
<path d="M28.1875 25.25H26.8125V26.625H28.1875V25.25Z" fill="#FAFAFA"/>
<path d="M34.3741 24.5625C34.1338 24.5632 33.8979 24.6271 33.6901 24.7478C33.4824 24.8685 33.3099 25.0417 33.1902 25.25H31.5622C31.459 24.6377 31.218 24.0568 30.8575 23.5512L32.0098 22.399C32.124 22.4311 32.2418 22.4484 32.3604 22.4505C32.6487 22.4525 32.9304 22.3639 33.1658 22.1974C33.4011 22.0309 33.5784 21.7948 33.6725 21.5223C33.7667 21.2498 33.773 20.9546 33.6907 20.6783C33.6083 20.402 33.4413 20.1585 33.2133 19.982C32.9853 19.8055 32.7077 19.705 32.4196 19.6946C32.1314 19.6841 31.8473 19.7643 31.6071 19.9238C31.3669 20.0833 31.1828 20.3141 31.0807 20.5837C30.9785 20.8534 30.9635 21.1482 31.0377 21.4268L29.8854 22.5791C29.3798 22.2186 28.7989 21.9776 28.1866 21.8744V20.2464C28.4487 20.095 28.6536 19.8614 28.7694 19.5818C28.8853 19.3021 28.9056 18.9921 28.8272 18.6997C28.7489 18.4074 28.5763 18.149 28.3361 17.9647C28.096 17.7805 27.8018 17.6806 27.4991 17.6806C27.1964 17.6806 26.9022 17.7805 26.6621 17.9647C26.4219 18.149 26.2493 18.4074 26.171 18.6997C26.0926 18.9921 26.1129 19.3021 26.2288 19.5818C26.3446 19.8614 26.5495 20.095 26.8116 20.2464V21.8744C26.1993 21.9776 25.6184 22.2186 25.1128 22.5791L23.9605 21.4268C24.0327 21.1502 24.0165 20.858 23.9143 20.591C23.812 20.3241 23.6287 20.0958 23.3902 19.9383C23.1517 19.7807 22.8698 19.7018 22.5841 19.7125C22.2985 19.7232 22.0233 19.823 21.7972 19.998C21.5712 20.1729 21.4055 20.4143 21.3235 20.6881C21.2415 20.9619 21.2472 21.2546 21.3399 21.525C21.4326 21.7955 21.6076 22.0301 21.8403 22.1961C22.0731 22.362 22.3519 22.451 22.6378 22.4505C22.7564 22.4484 22.8742 22.4311 22.9884 22.399L24.1407 23.5512C23.7802 24.0568 23.5392 24.6377 23.436 25.25H21.808C21.6566 24.9879 21.423 24.783 21.1434 24.6672C20.8637 24.5513 20.5537 24.531 20.2613 24.6094C19.9689 24.6877 19.7106 24.8603 19.5263 25.1005C19.3421 25.3406 19.2422 25.6348 19.2422 25.9375C19.2422 26.2402 19.3421 26.5344 19.5263 26.7746C19.7106 27.0147 19.9689 27.1873 20.2613 27.2657C20.5537 27.344 20.8637 27.3237 21.1434 27.2078C21.423 27.092 21.6566 26.8871 21.808 26.625H23.436C23.5392 27.2373 23.7802 27.8182 24.1407 28.3238L22.9884 29.4761C22.7565 29.4134 22.5123 29.4128 22.2801 29.4743C22.0479 29.5359 21.836 29.6574 21.6657 29.8267C21.494 29.9969 21.3702 30.2093 21.3068 30.4425C21.2434 30.6757 21.2425 30.9216 21.3044 31.1552C21.3663 31.3889 21.4886 31.6021 21.6592 31.7734C21.8297 31.9447 22.0424 32.068 22.2758 32.1309C22.5091 32.1938 22.755 32.1941 22.9885 32.1317C23.222 32.0693 23.435 31.9465 23.6059 31.7756C23.7768 31.6046 23.8996 31.3917 23.962 31.1582C24.0244 30.9247 24.0241 30.6788 23.9612 30.4455L25.1135 29.2932C25.6186 29.6546 26.1993 29.8965 26.8116 30.0006V31.6286C26.5495 31.78 26.3446 32.0136 26.2288 32.2932C26.1129 32.5729 26.0926 32.8829 26.171 33.1753C26.2493 33.4677 26.4219 33.726 26.6621 33.9103C26.9022 34.0945 27.1964 34.1944 27.4991 34.1944C27.8018 34.1944 28.096 34.0945 28.3361 33.9103C28.5763 33.726 28.7489 33.4677 28.8272 33.1753C28.9056 32.8829 28.8853 32.5729 28.7694 32.2932C28.6536 32.0136 28.4487 31.78 28.1866 31.6286V30.0006C28.7989 29.8974 29.3798 29.6565 29.8854 29.2959L31.0377 30.4482C30.9593 30.7406 30.9796 31.0506 31.0954 31.3303C31.2112 31.61 31.4161 31.8436 31.6782 31.9949C31.9404 32.1463 32.2451 32.2069 32.5452 32.1674C32.8453 32.1279 33.124 31.9905 33.338 31.7765C33.5521 31.5624 33.6895 31.2837 33.729 30.9836C33.7685 30.6835 33.7079 30.3788 33.5565 30.1166C33.4052 29.8545 33.1715 29.6496 32.8919 29.5338C32.6122 29.418 32.3022 29.3977 32.0098 29.4761L30.8575 28.3238C31.218 27.8182 31.459 27.2373 31.5622 26.625H33.1902C33.3111 26.8343 33.4849 27.008 33.6943 27.1287C33.9036 27.2494 34.1411 27.3128 34.3827 27.3125C34.6244 27.3122 34.8617 27.2482 35.0707 27.127C35.2798 27.0058 35.4532 26.8316 35.5735 26.622C35.6938 26.4124 35.7568 26.1748 35.756 25.9332C35.7552 25.6915 35.6908 25.4543 35.5692 25.2455C35.4476 25.0367 35.2731 24.8636 35.0633 24.7437C34.8535 24.6238 34.6157 24.5613 34.3741 24.5625ZM29.3602 26.8265L28.388 27.7986L28.8872 28.2977C28.4691 28.5527 27.9888 28.6875 27.4991 28.6875C27.0094 28.6875 26.5291 28.5527 26.111 28.2977L26.6102 27.7986L25.638 26.8265L25.1389 27.3256C24.884 26.9075 24.7491 26.4272 24.7491 25.9375C24.7491 25.4478 24.884 24.9676 25.1389 24.5495L25.638 25.0486L26.6102 24.0765L26.111 23.5773C26.5291 23.3224 27.0094 23.1875 27.4991 23.1875C27.9888 23.1875 28.4691 23.3224 28.8872 23.5773L28.388 24.0765L29.3602 25.0486L29.8593 24.5495C30.1142 24.9676 30.2491 25.4478 30.2491 25.9375C30.2491 26.4272 30.1142 26.9075 29.8593 27.3256L29.3602 26.8265Z" fill="#FAFAFA"/>
<path d="M19.7677 15.7398L20.7921 16.7642L21.7642 15.7921L20.7398 14.7677C20.9838 14.4021 21.1549 13.9929 21.2437 13.5625H22.6875V12.1875H21.2437C21.1551 11.7571 20.9842 11.3479 20.7405 10.9823L21.7649 9.95794L20.7927 8.98581L19.7684 10.0102C19.4027 9.76605 18.9932 9.59493 18.5625 9.50625V8.0625H17.1875V9.50625C16.7571 9.5948 16.3479 9.76568 15.9823 10.0095L14.9579 8.98513L13.9858 9.95725L15.0102 10.9816C14.7662 11.3474 14.5951 11.7569 14.5063 12.1875H13.0625V13.5625H14.5063C14.5949 13.9929 14.7658 14.4021 15.0095 14.7677L13.9851 15.7921L14.9573 16.7642L15.9816 15.7398C16.3473 15.984 16.7568 16.1551 17.1875 16.2437V17.6875H18.5625V16.2437C18.9929 16.155 19.4022 15.9839 19.7677 15.7398ZM15.8125 12.875C15.8125 12.4671 15.9335 12.0683 16.1601 11.7291C16.3867 11.39 16.7088 11.1256 17.0857 10.9695C17.4626 10.8134 17.8773 10.7725 18.2774 10.8521C18.6775 10.9317 19.045 11.1281 19.3334 11.4166C19.6219 11.705 19.8183 12.0725 19.8979 12.4726C19.9775 12.8727 19.9366 13.2874 19.7805 13.6643C19.6244 14.0412 19.36 14.3633 19.0209 14.5899C18.6817 14.8165 18.2829 14.9375 17.875 14.9375C17.328 14.9375 16.8034 14.7202 16.4166 14.3334C16.0298 13.9466 15.8125 13.422 15.8125 12.875Z" fill="#FAFAFA"/>
<path d="M18.5625 12.1875H17.1875V13.5625H18.5625V12.1875Z" fill="#FAFAFA"/>
<path d="M10.3125 19.75H8.9375V21.125H10.3125V19.75Z" fill="#FAFAFA"/>
<path d="M13.0625 24.5625H11.6875V25.9375H13.0625V24.5625Z" fill="#FAFAFA"/>
<path d="M16.5 29.375H15.125V30.75H16.5V29.375Z" fill="#FAFAFA"/>
<path d="M16.5 21.125H15.125V22.5H16.5V21.125Z" fill="#FAFAFA"/>
<path d="M10.3125 27.3125H8.9375V28.6875H10.3125V27.3125Z" fill="#FAFAFA"/>
<path d="M28.1875 12.1875H26.8125V13.5625H28.1875V12.1875Z" fill="#FAFAFA"/>
<path d="M32.3125 15.625H30.9375V17H32.3125V15.625Z" fill="#FAFAFA"/>
<path d="M22.6875 35.5625H21.3125V36.9375H22.6875V35.5625Z" fill="#FAFAFA"/>
</svg>
