<svg width="38" height="39" viewBox="0 0 38 39" fill="none" xmlns="http://www.w3.org/2000/svg">
<path d="M19.0004 38.25C18.4767 38.2506 17.966 38.0867 17.5405 37.7815C17.1149 37.4762 16.796 37.045 16.6286 36.5488C16.4613 36.0525 16.4541 35.5163 16.6079 35.0157C16.7617 34.5151 17.0689 34.0754 17.486 33.7588L17.2985 30.6225C16.4799 30.4992 15.6779 30.2834 14.9079 29.9794L13.1785 32.6044C13.381 33.087 13.4269 33.6211 13.3097 34.1312C13.1926 34.6413 12.9183 35.1018 12.5255 35.4477C12.1327 35.7936 11.6412 36.0075 11.1204 36.0593C10.5996 36.1111 10.0756 35.998 9.62243 35.7362C9.16924 35.4743 8.80967 35.0769 8.5944 34.5998C8.37914 34.1227 8.31903 33.5901 8.42257 33.077C8.5261 32.564 8.78805 32.0963 9.17148 31.7401C9.55492 31.3838 10.0405 31.1569 10.5598 31.0913L11.9691 28.2825C11.3212 27.7645 10.7327 27.1761 10.2148 26.5281L7.40851 27.9375C7.3429 28.4568 7.11596 28.9424 6.7597 29.3258C6.40344 29.7092 5.93582 29.9712 5.42276 30.0747C4.9097 30.1783 4.37709 30.1181 3.90001 29.9029C3.42293 29.6876 3.02545 29.328 2.7636 28.8749C2.50174 28.4217 2.38873 27.8977 2.44049 27.3769C2.49225 26.8561 2.70617 26.3646 3.05209 25.9718C3.39801 25.579 3.85849 25.3047 4.3686 25.1876C4.87872 25.0704 5.41274 25.1163 5.89539 25.3188L8.52039 23.59C8.21573 22.8201 7.99934 22.0181 7.87539 21.1994L4.73914 21.0119C4.42223 21.4282 3.98272 21.7345 3.48251 21.8878C2.9823 22.0411 2.44661 22.0336 1.95089 21.8664C1.45517 21.6991 1.0244 21.3806 0.719264 20.9556C0.414128 20.5307 0.25 20.0207 0.25 19.4975C0.25 18.9744 0.414128 18.4644 0.719264 18.0394C1.0244 17.6144 1.45517 17.2959 1.95089 17.1287C2.44661 16.9614 2.9823 16.954 3.48251 17.1072C3.98272 17.2605 4.42223 17.5669 4.73914 17.9831L7.87539 17.7956C7.99874 16.977 8.21449 16.175 8.51851 15.405L5.89351 13.6756C5.41058 13.878 4.8763 13.9236 4.36607 13.806C3.85583 13.6884 3.39539 13.4136 3.04972 13.0203C2.70404 12.627 2.49057 12.1351 2.43943 11.614C2.38828 11.0929 2.50205 10.5689 2.76467 10.1159C3.0273 9.66294 3.42552 9.30385 3.90316 9.08931C4.3808 8.87478 4.91375 8.81563 5.42681 8.92021C5.93986 9.02479 6.40713 9.28782 6.76269 9.6722C7.11825 10.0566 7.34415 10.5429 7.40851 11.0625L10.2173 12.4713C10.7352 11.8233 11.3237 11.2349 11.9716 10.7169L10.5629 7.90815C10.0436 7.84253 9.55804 7.6156 9.17461 7.25933C8.79117 6.90307 8.52922 6.43545 8.42569 5.92239C8.32216 5.40934 8.38226 4.87673 8.59753 4.39965C8.8128 3.92257 9.17237 3.52508 9.62556 3.26323C10.0787 3.00138 10.6027 2.88836 11.1235 2.94012C11.6443 2.99188 12.1358 3.2058 12.5286 3.55172C12.9214 3.89765 13.1957 4.35812 13.3128 4.86824C13.43 5.37835 13.3841 5.91238 13.1816 6.39502L14.911 9.02002C15.6806 8.71491 16.4824 8.49851 17.301 8.37502L17.4885 5.23877C17.0723 4.92186 16.7659 4.48235 16.6126 3.98214C16.4593 3.48194 16.4668 2.94624 16.634 2.45052C16.8013 1.9548 17.1198 1.52403 17.5448 1.2189C17.9697 0.913762 18.4797 0.749634 19.0029 0.749634C19.5261 0.749634 20.036 0.913762 20.461 1.2189C20.886 1.52403 21.2045 1.9548 21.3717 2.45052C21.539 2.94624 21.5465 3.48194 21.3932 3.98214C21.2399 4.48235 20.9335 4.92186 20.5173 5.23877L20.7048 8.37502C21.5235 8.49786 22.3255 8.71363 23.0954 9.01815L24.8248 6.39315C24.6223 5.9105 24.5764 5.37648 24.6936 4.86636C24.8107 4.35625 25.085 3.89577 25.4778 3.54985C25.8706 3.20393 26.3621 2.99001 26.8829 2.93825C27.4037 2.88649 27.9277 2.9995 28.3808 3.26136C28.834 3.52321 29.1936 3.92069 29.4089 4.39777C29.6241 4.87485 29.6842 5.40746 29.5807 5.92052C29.4772 6.43357 29.2152 6.9012 28.8318 7.25746C28.4484 7.61372 27.9628 7.84066 27.4435 7.90627L26.0341 10.715C26.6821 11.233 27.2705 11.8214 27.7885 12.4694L30.5923 11.0625C30.6578 10.5432 30.8846 10.0576 31.2408 9.67402C31.597 9.29049 32.0646 9.02844 32.5777 8.92482C33.0907 8.82119 33.6234 8.88121 34.1005 9.09643C34.5777 9.31164 34.9752 9.67119 35.2371 10.1244C35.499 10.5776 35.6121 11.1015 35.5604 11.6224C35.5087 12.1432 35.2947 12.6347 34.9488 13.0276C34.6029 13.4204 34.1424 13.6947 33.6322 13.8119C33.1221 13.9291 32.5881 13.8832 32.1054 13.6806L29.4804 15.41C29.785 16.18 30.0014 16.982 30.1254 17.8006L33.2616 17.9881C33.5785 17.5719 34.0181 17.2655 34.5183 17.1122C35.0185 16.959 35.5542 16.9664 36.0499 17.1337C36.5456 17.3009 36.9764 17.6194 37.2815 18.0444C37.5866 18.4694 37.7508 18.9794 37.7508 19.5025C37.7508 20.0257 37.5866 20.5357 37.2815 20.9606C36.9764 21.3856 36.5456 21.7041 36.0499 21.8714C35.5542 22.0386 35.0185 22.0461 34.5183 21.8928C34.0181 21.7395 33.5785 21.4332 33.2616 21.0169L30.1254 21.2044C30.002 22.023 29.7863 22.825 29.4823 23.595L32.1073 25.3238C32.5899 25.1213 33.1239 25.0754 33.634 25.1926C34.1442 25.3097 34.6046 25.584 34.9506 25.9768C35.2965 26.3696 35.5104 26.8611 35.5622 27.3819C35.6139 27.9027 35.5009 28.4267 35.2391 28.8799C34.9772 29.333 34.5797 29.6926 34.1026 29.9079C33.6256 30.1231 33.0929 30.1833 32.5799 30.0797C32.0668 29.9762 31.5992 29.7142 31.243 29.3308C30.8867 28.9474 30.6598 28.4618 30.5941 27.9425L27.7854 26.5338C27.2674 27.1818 26.679 27.7702 26.031 28.2881L27.4379 31.0919C27.9572 31.1575 28.4427 31.3844 28.8262 31.7407C29.2096 32.097 29.4716 32.5646 29.5751 33.0777C29.6786 33.5907 29.6185 34.1233 29.4032 34.6004C29.188 35.0775 28.8284 35.475 28.3752 35.7368C27.922 35.9987 27.3981 36.1117 26.8773 36.0599C26.3564 36.0082 25.865 35.7942 25.4722 35.4483C25.0794 35.1024 24.8051 34.6419 24.6879 34.1318C24.5708 33.6217 24.6167 33.0877 24.8191 32.605L23.0898 29.98C22.32 30.2846 21.5182 30.501 20.6998 30.625L20.5123 33.7613C20.9282 34.0781 21.2343 34.5174 21.3876 35.0173C21.5408 35.5171 21.5335 36.0525 21.3666 36.548C21.1997 37.0435 20.8817 37.4742 20.4572 37.7795C20.0327 38.0848 19.5232 38.2494 19.0004 38.25ZM14.676 28.575C14.7653 28.5751 14.8535 28.5943 14.9348 28.6313C15.8923 29.0652 16.9139 29.3409 17.9598 29.4475C18.107 29.463 18.244 29.5302 18.3464 29.6372C18.4487 29.7442 18.5097 29.8841 18.5185 30.0319L18.7554 34.0506C18.7625 34.171 18.7347 34.2909 18.6753 34.3958C18.6158 34.5007 18.5273 34.5862 18.4204 34.6419C18.1727 34.7716 17.9757 34.9806 17.8608 35.2355C17.7459 35.4903 17.7198 35.7764 17.7866 36.0478C17.8534 36.3193 18.0093 36.5606 18.2293 36.733C18.4493 36.9055 18.7208 36.9992 19.0004 36.9992C19.28 36.9992 19.5515 36.9055 19.7715 36.733C19.9915 36.5606 20.1474 36.3193 20.2142 36.0478C20.281 35.7764 20.2548 35.4903 20.1399 35.2355C20.0251 34.9806 19.828 34.7716 19.5804 34.6419C19.4735 34.5862 19.3849 34.5007 19.3255 34.3958C19.2661 34.2909 19.2382 34.171 19.2454 34.0506L19.4823 30.0319C19.4911 29.8841 19.5521 29.7442 19.6544 29.6372C19.7567 29.5302 19.8937 29.463 20.041 29.4475C21.0869 29.3409 22.1085 29.0652 23.066 28.6313C23.2017 28.5694 23.355 28.5581 23.4982 28.5994C23.6415 28.6406 23.7653 28.7318 23.8473 28.8563L26.066 32.225C26.1324 32.3267 26.1678 32.4455 26.1678 32.5669C26.1678 32.6883 26.1324 32.8071 26.066 32.9088C25.9427 33.1008 25.875 33.3232 25.8705 33.5514C25.8659 33.7796 25.9248 34.0045 26.0404 34.2013C26.1657 34.4142 26.3511 34.5855 26.5733 34.6935C26.7955 34.8015 27.0446 34.8416 27.2895 34.8086C27.5344 34.7757 27.7641 34.6711 27.9498 34.5082C28.1355 34.3452 28.269 34.131 28.3335 33.8925C28.3827 33.7031 28.3869 33.5048 28.3458 33.3135C28.3046 33.1221 28.2192 32.9431 28.0965 32.7907C27.9737 32.6383 27.8169 32.5167 27.6388 32.4357C27.4606 32.3548 27.2659 32.3166 27.0704 32.3244C26.9498 32.3298 26.8301 32.3002 26.726 32.2391C26.6218 32.178 26.5376 32.088 26.4835 31.98L24.6773 28.38C24.6108 28.2475 24.5936 28.0957 24.6288 27.9516C24.6639 27.8076 24.7491 27.6808 24.8691 27.5938C25.7232 26.9756 26.4735 26.2254 27.0916 25.3713C27.1786 25.2511 27.3054 25.1658 27.4494 25.1305C27.5934 25.0953 27.7453 25.1124 27.8779 25.1788L31.4779 26.9856C31.5859 27.0397 31.6758 27.124 31.7369 27.2281C31.7981 27.3323 31.8277 27.4519 31.8223 27.5725C31.8109 27.8517 31.8933 28.1266 32.0565 28.3534C32.2196 28.5802 32.454 28.7458 32.7223 28.8238C32.9906 28.9018 33.2773 28.8877 33.5366 28.7837C33.7959 28.6797 34.0129 28.4918 34.1529 28.25C34.3184 27.9629 34.3635 27.622 34.2785 27.3018C34.1935 26.9815 33.9852 26.7079 33.6991 26.5406C33.5025 26.4257 33.278 26.3674 33.0503 26.3722C32.8226 26.3771 32.6006 26.4449 32.4091 26.5681C32.3075 26.6346 32.1887 26.6699 32.0673 26.6699C31.9458 26.6699 31.827 26.6346 31.7254 26.5681L28.3566 24.3494C28.2319 24.2675 28.1405 24.1436 28.0991 24.0002C28.0578 23.8568 28.0691 23.7033 28.131 23.5675C28.5655 22.6106 28.8414 21.5893 28.9479 20.5438C28.9633 20.3964 29.0306 20.2593 29.1378 20.157C29.2449 20.0546 29.385 19.9937 29.5329 19.985L33.551 19.7475C33.6714 19.7404 33.7912 19.7682 33.8961 19.8276C34.0011 19.8871 34.0865 19.9756 34.1423 20.0825C34.272 20.3302 34.481 20.5272 34.7358 20.6421C34.9907 20.757 35.2767 20.7831 35.5482 20.7163C35.8197 20.6495 36.0609 20.4937 36.2334 20.2736C36.4058 20.0536 36.4996 19.7821 36.4996 19.5025C36.4996 19.223 36.4058 18.9515 36.2334 18.7314C36.0609 18.5114 35.8197 18.3555 35.5482 18.2887C35.2767 18.2219 34.9907 18.2481 34.7358 18.363C34.481 18.4779 34.272 18.6749 34.1423 18.9225C34.0865 19.0294 34.0011 19.118 33.8961 19.1774C33.7912 19.2368 33.6714 19.2647 33.551 19.2575L29.5329 19.02C29.385 19.0113 29.2449 18.9504 29.1378 18.8481C29.0306 18.7457 28.9633 18.6086 28.9479 18.4613C28.8414 17.4157 28.5655 16.3945 28.131 15.4375C28.0691 15.3017 28.0578 15.1482 28.0991 15.0048C28.1405 14.8614 28.2319 14.7376 28.3566 14.6556L31.7254 12.4369C31.827 12.3705 31.9458 12.3351 32.0673 12.3351C32.1887 12.3351 32.3075 12.3705 32.4091 12.4369C32.6011 12.56 32.8234 12.6276 33.0514 12.6322C33.2794 12.6369 33.5042 12.5783 33.701 12.4631C33.9142 12.3381 34.0858 12.1528 34.194 11.9306C34.3023 11.7084 34.3425 11.4591 34.3096 11.2141C34.2767 10.9691 34.1721 10.7393 34.009 10.5536C33.8459 10.3678 33.6316 10.2344 33.3929 10.17C33.2035 10.12 33.0049 10.1152 32.8133 10.156C32.6217 10.1968 32.4423 10.282 32.2897 10.4049C32.1371 10.5278 32.0155 10.6848 31.9347 10.8633C31.854 11.0418 31.8163 11.2368 31.8248 11.4325C31.8302 11.5532 31.8006 11.6728 31.7394 11.7769C31.6783 11.8811 31.5884 11.9653 31.4804 12.0194L27.8804 13.8263C27.7478 13.8927 27.5959 13.9098 27.4519 13.8745C27.3079 13.8392 27.1811 13.7539 27.0941 13.6338C26.476 12.7797 25.7257 12.0294 24.8716 11.4113C24.7516 11.3243 24.6664 11.1974 24.6313 11.0534C24.5961 10.9094 24.6133 10.7575 24.6798 10.625L26.486 7.02502C26.5401 6.91706 26.6243 6.82708 26.7285 6.76597C26.8326 6.70485 26.9523 6.67522 27.0729 6.68065C27.3527 6.69286 27.6284 6.61077 27.856 6.44755C28.0835 6.28433 28.2497 6.04942 28.3278 5.7805C28.4059 5.51158 28.3914 5.22422 28.2867 4.96449C28.182 4.70476 27.9932 4.48771 27.7504 4.34815C27.4634 4.18244 27.1225 4.13709 26.8022 4.222C26.4819 4.30691 26.2082 4.51517 26.041 4.80127C25.9259 4.9978 25.8675 5.22237 25.8723 5.45007C25.877 5.67777 25.9447 5.8997 26.0679 6.09127C26.1343 6.19292 26.1697 6.31172 26.1697 6.43315C26.1697 6.55457 26.1343 6.67337 26.0679 6.77502L23.8491 10.1438C23.7672 10.2683 23.6434 10.3594 23.5001 10.4007C23.3568 10.4419 23.2035 10.4306 23.0679 10.3688C22.1107 9.93441 21.0892 9.65873 20.0435 9.55252C19.8961 9.53723 19.759 9.47007 19.6565 9.36304C19.5541 9.256 19.493 9.11605 19.4841 8.96815L19.2473 4.9494C19.2401 4.82903 19.2679 4.70917 19.3274 4.60426C19.3868 4.49936 19.4753 4.41388 19.5823 4.35815C19.8299 4.22843 20.0269 4.01943 20.1418 3.76457C20.2567 3.5097 20.2829 3.22367 20.2161 2.9522C20.1493 2.68073 19.9934 2.43949 19.7734 2.26703C19.5533 2.09457 19.2818 2.00085 19.0023 2.00085C18.7227 2.00085 18.4512 2.09457 18.2312 2.26703C18.0111 2.43949 17.8553 2.68073 17.7885 2.9522C17.7217 3.22367 17.7478 3.5097 17.8627 3.76457C17.9776 4.01943 18.1746 4.22843 18.4223 4.35815C18.5292 4.41388 18.6177 4.49936 18.6771 4.60426C18.7366 4.70917 18.7644 4.82903 18.7573 4.9494L18.5204 8.96815C18.5115 9.11605 18.4505 9.256 18.348 9.36304C18.2455 9.47007 18.1084 9.53723 17.961 9.55252C16.9157 9.65886 15.8947 9.93454 14.9379 10.3688C14.8022 10.4306 14.6489 10.4419 14.5057 10.4007C14.3624 10.3594 14.2386 10.2683 14.1566 10.1438L11.9379 6.77502C11.8715 6.67337 11.8361 6.55457 11.8361 6.43315C11.8361 6.31172 11.8715 6.19292 11.9379 6.09127C12.0612 5.89926 12.1289 5.67681 12.1334 5.44864C12.138 5.22048 12.0791 4.99552 11.9635 4.79877C11.8384 4.58575 11.6531 4.41442 11.431 4.30629C11.2088 4.19816 10.9597 4.15803 10.7149 4.19094C10.47 4.22385 10.2403 4.32833 10.0546 4.49128C9.86891 4.65423 9.73546 4.86839 9.67101 5.1069C9.62085 5.29636 9.61594 5.49497 9.65669 5.68668C9.69743 5.87839 9.78269 6.05783 9.90557 6.21052C10.0284 6.36321 10.1855 6.48487 10.3641 6.56566C10.5426 6.64646 10.7377 6.68413 10.9335 6.67565C11.0541 6.67022 11.1738 6.69985 11.2779 6.76097C11.3821 6.82208 11.4663 6.91206 11.5204 7.02002L13.3266 10.62C13.3931 10.7525 13.4103 10.9044 13.3751 11.0484C13.34 11.1924 13.2548 11.3193 13.1348 11.4063C12.2807 12.0244 11.5304 12.7747 10.9123 13.6288C10.8253 13.7489 10.6985 13.8342 10.5545 13.8695C10.4105 13.9048 10.2586 13.8877 10.126 13.8213L6.52601 12.0144C6.41805 11.9603 6.32807 11.8761 6.26696 11.7719C6.20584 11.6678 6.17621 11.5482 6.18164 11.4275C6.1944 11.1473 6.11256 10.871 5.94928 10.643C5.78601 10.4149 5.55078 10.2484 5.28143 10.1702C5.01207 10.092 4.72425 10.1067 4.46424 10.2118C4.20423 10.317 3.98714 10.5066 3.84789 10.75C3.6824 11.0371 3.63724 11.378 3.72225 11.6983C3.80727 12.0186 4.01556 12.2922 4.30164 12.4594C4.49832 12.5741 4.72287 12.6323 4.95051 12.6274C5.17815 12.6225 5.40002 12.5549 5.59164 12.4319C5.69329 12.3655 5.81209 12.3301 5.93351 12.3301C6.05494 12.3301 6.17374 12.3655 6.27539 12.4319L9.64414 14.6506C9.76891 14.7326 9.86025 14.8564 9.90163 14.9998C9.94302 15.1432 9.93171 15.2967 9.86976 15.4325C9.43526 16.3895 9.15936 17.4107 9.05289 18.4563C9.03744 18.6036 8.97013 18.7407 8.86298 18.8431C8.75583 18.9454 8.61581 19.0063 8.46789 19.015L4.44976 19.2525C4.32932 19.2601 4.20927 19.2325 4.10427 19.173C3.99927 19.1135 3.91388 19.0248 3.85851 18.9175C3.72879 18.6699 3.5198 18.4729 3.26493 18.358C3.01007 18.2431 2.72404 18.2169 2.45257 18.2837C2.1811 18.3505 1.93986 18.5064 1.7674 18.7264C1.59494 18.9465 1.50122 19.218 1.50122 19.4975C1.50122 19.7771 1.59494 20.0486 1.7674 20.2686C1.93986 20.4887 2.1811 20.6445 2.45257 20.7113C2.72404 20.7781 3.01007 20.752 3.26493 20.6371C3.5198 20.5222 3.72879 20.3252 3.85851 20.0775C3.91425 19.9706 3.99972 19.8821 4.10463 19.8226C4.20954 19.7632 4.3294 19.7354 4.44976 19.7425L8.46789 19.98C8.61581 19.9887 8.75583 20.0496 8.86298 20.152C8.97013 20.2543 9.03744 20.3914 9.05289 20.5388C9.15936 21.5843 9.43526 22.6056 9.86976 23.5625C9.93171 23.6983 9.94302 23.8518 9.90163 23.9952C9.86025 24.1386 9.76891 24.2625 9.64414 24.3444L6.27539 26.5631C6.17374 26.6296 6.05494 26.6649 5.93351 26.6649C5.81209 26.6649 5.69329 26.6296 5.59164 26.5631C5.39983 26.4396 5.1775 26.3718 4.94942 26.3672C4.72133 26.3625 4.49643 26.4213 4.29976 26.5369C4.08654 26.662 3.91502 26.8472 3.80675 27.0695C3.69847 27.2917 3.65827 27.5409 3.69119 27.7859C3.72411 28.0309 3.82868 28.2607 3.99178 28.4465C4.15487 28.6322 4.36921 28.7657 4.60789 28.83C4.79731 28.8801 4.99585 28.8849 5.18748 28.8441C5.37911 28.8033 5.55846 28.718 5.71107 28.5951C5.86368 28.4723 5.98527 28.3153 6.06604 28.1368C6.1468 27.9583 6.18447 27.7633 6.17601 27.5675C6.17058 27.4469 6.20022 27.3273 6.26133 27.2231C6.32245 27.119 6.41243 27.0347 6.52039 26.9806L10.1204 25.1738C10.253 25.1074 10.4049 25.0903 10.5489 25.1255C10.6929 25.1608 10.8197 25.2461 10.9066 25.3663C11.5248 26.2204 12.275 26.9706 13.1291 27.5888C13.2492 27.6758 13.3344 27.8026 13.3695 27.9466C13.4047 28.0907 13.3875 28.2425 13.321 28.375L11.5148 31.975C11.4607 32.083 11.3764 32.173 11.2723 32.2341C11.1681 32.2952 11.0485 32.3248 10.9279 32.3194C10.7323 32.3115 10.5376 32.3496 10.3593 32.4305C10.1811 32.5114 10.0243 32.633 9.90148 32.7854C9.77869 32.9379 9.69331 33.117 9.6522 33.3083C9.6111 33.4997 9.6154 33.6981 9.66476 33.8875C9.72938 34.1262 9.86307 34.3405 10.049 34.5035C10.235 34.6664 10.465 34.7708 10.7101 34.8036C10.9552 34.8363 11.2045 34.7959 11.4268 34.6874C11.649 34.5789 11.8342 34.4072 11.9591 34.1938C12.0742 33.9972 12.1326 33.7727 12.1279 33.545C12.1231 33.3173 12.0554 33.0953 11.9323 32.9038C11.8658 32.8021 11.8305 32.6833 11.8305 32.5619C11.8305 32.4405 11.8658 32.3217 11.9323 32.22L14.151 28.8513C14.2088 28.7653 14.287 28.6951 14.3786 28.6469C14.4703 28.5987 14.5725 28.574 14.676 28.575Z" fill="#FAFAFA"/>
<path d="M19 16.375C18.5055 16.375 18.0222 16.2284 17.6111 15.9537C17.2 15.679 16.8795 15.2885 16.6903 14.8317C16.5011 14.3749 16.4516 13.8722 16.548 13.3873C16.6445 12.9023 16.8826 12.4569 17.2322 12.1072C17.5819 11.7576 18.0273 11.5195 18.5123 11.423C18.9972 11.3266 19.4999 11.3761 19.9567 11.5653C20.4135 11.7545 20.804 12.075 21.0787 12.4861C21.3534 12.8972 21.5 13.3805 21.5 13.875C21.5 14.538 21.2366 15.1739 20.7678 15.6428C20.2989 16.1116 19.663 16.375 19 16.375ZM19 12.625C18.7528 12.625 18.5111 12.6983 18.3055 12.8357C18.1 12.973 17.9398 13.1682 17.8452 13.3966C17.7505 13.6251 17.7258 13.8764 17.774 14.1189C17.8223 14.3613 17.9413 14.5841 18.1161 14.7589C18.2909 14.9337 18.5137 15.0528 18.7561 15.101C18.9986 15.1492 19.2499 15.1245 19.4784 15.0299C19.7068 14.9352 19.902 14.775 20.0393 14.5695C20.1767 14.3639 20.25 14.1222 20.25 13.875C20.25 13.5435 20.1183 13.2255 19.8839 12.9911C19.6495 12.7567 19.3315 12.625 19 12.625Z" fill="#FAFAFA"/>
<path d="M15.875 25.125C15.3805 25.125 14.8972 24.9784 14.4861 24.7037C14.075 24.429 13.7545 24.0385 13.5653 23.5817C13.3761 23.1249 13.3266 22.6222 13.423 22.1373C13.5195 21.6523 13.7576 21.2069 14.1072 20.8572C14.4569 20.5076 14.9023 20.2695 15.3873 20.173C15.8722 20.0766 16.3749 20.1261 16.8317 20.3153C17.2885 20.5045 17.679 20.825 17.9537 21.2361C18.2284 21.6472 18.375 22.1305 18.375 22.625C18.375 23.288 18.1116 23.9239 17.6428 24.3928C17.1739 24.8616 16.538 25.125 15.875 25.125ZM15.875 21.375C15.6278 21.375 15.3861 21.4483 15.1805 21.5857C14.975 21.723 14.8148 21.9182 14.7202 22.1466C14.6255 22.3751 14.6008 22.6264 14.649 22.8689C14.6973 23.1113 14.8163 23.3341 14.9911 23.5089C15.1659 23.6837 15.3887 23.8028 15.6311 23.851C15.8736 23.8992 16.1249 23.8745 16.3534 23.7799C16.5818 23.6852 16.777 23.525 16.9143 23.3195C17.0517 23.1139 17.125 22.8722 17.125 22.625C17.125 22.2935 16.9933 21.9755 16.7589 21.7411C16.5245 21.5067 16.2065 21.375 15.875 21.375Z" fill="#FAFAFA"/>
<path d="M24 22.625C23.3819 22.625 22.7777 22.4417 22.2638 22.0983C21.7499 21.755 21.3494 21.2669 21.1129 20.6959C20.8764 20.1249 20.8145 19.4965 20.935 18.8903C21.0556 18.2842 21.3533 17.7273 21.7903 17.2903C22.2273 16.8533 22.7842 16.5556 23.3903 16.435C23.9965 16.3145 24.6249 16.3764 25.1959 16.6129C25.7669 16.8494 26.255 17.2499 26.5983 17.7638C26.9417 18.2777 27.125 18.8819 27.125 19.5C27.124 20.3285 26.7944 21.1228 26.2086 21.7086C25.6228 22.2944 24.8285 22.624 24 22.625ZM24 17.625C23.6292 17.625 23.2666 17.735 22.9583 17.941C22.65 18.147 22.4096 18.4399 22.2677 18.7825C22.1258 19.1251 22.0887 19.5021 22.161 19.8658C22.2334 20.2295 22.412 20.5636 22.6742 20.8258C22.9364 21.088 23.2705 21.2666 23.6342 21.339C23.9979 21.4113 24.3749 21.3742 24.7175 21.2323C25.0601 21.0904 25.353 20.85 25.559 20.5417C25.765 20.2334 25.875 19.8708 25.875 19.5C25.875 19.0027 25.6775 18.5258 25.3258 18.1742C24.9742 17.8225 24.4973 17.625 24 17.625Z" fill="#FAFAFA"/>
<path d="M13.375 19.5C13.0042 19.5 12.6416 19.39 12.3333 19.184C12.025 18.978 11.7846 18.6851 11.6427 18.3425C11.5008 17.9999 11.4637 17.6229 11.536 17.2592C11.6084 16.8955 11.787 16.5614 12.0492 16.2992C12.3114 16.037 12.6455 15.8584 13.0092 15.786C13.3729 15.7137 13.7499 15.7508 14.0925 15.8927C14.4351 16.0346 14.728 16.275 14.934 16.5833C15.14 16.8916 15.25 17.2542 15.25 17.625C15.25 18.1223 15.0525 18.5992 14.7008 18.9508C14.3492 19.3025 13.8723 19.5 13.375 19.5ZM13.375 17C13.2514 17 13.1306 17.0367 13.0278 17.1053C12.925 17.174 12.8449 17.2716 12.7976 17.3858C12.7503 17.5 12.7379 17.6257 12.762 17.7469C12.7861 17.8682 12.8457 17.9795 12.9331 18.0669C13.0205 18.1544 13.1318 18.2139 13.2531 18.238C13.3743 18.2621 13.5 18.2497 13.6142 18.2024C13.7284 18.1551 13.826 18.075 13.8947 17.9722C13.9633 17.8695 14 17.7486 14 17.625C14 17.4592 13.9342 17.3003 13.8169 17.1831C13.6997 17.0658 13.5408 17 13.375 17Z" fill="#FAFAFA"/>
<path d="M21.5 27C21.1292 27 20.7666 26.89 20.4583 26.684C20.15 26.478 19.9096 26.1851 19.7677 25.8425C19.6258 25.4999 19.5887 25.1229 19.661 24.7592C19.7334 24.3955 19.912 24.0614 20.1742 23.7992C20.4364 23.537 20.7705 23.3584 21.1342 23.286C21.4979 23.2137 21.8749 23.2508 22.2175 23.3927C22.5601 23.5346 22.853 23.775 23.059 24.0833C23.265 24.3916 23.375 24.7542 23.375 25.125C23.375 25.6223 23.1775 26.0992 22.8258 26.4508C22.4742 26.8025 21.9973 27 21.5 27ZM21.5 24.5C21.3764 24.5 21.2556 24.5367 21.1528 24.6053C21.05 24.674 20.9699 24.7716 20.9226 24.8858C20.8753 25 20.8629 25.1257 20.887 25.2469C20.9111 25.3682 20.9707 25.4795 21.0581 25.5669C21.1455 25.6544 21.2568 25.7139 21.3781 25.738C21.4993 25.7621 21.625 25.7497 21.7392 25.7024C21.8534 25.6551 21.951 25.575 22.0197 25.4722C22.0883 25.3695 22.125 25.2486 22.125 25.125C22.125 24.9592 22.0592 24.8003 21.9419 24.6831C21.8247 24.5658 21.6658 24.5 21.5 24.5Z" fill="#FAFAFA"/>
</svg>
