<svg width="173" height="173" viewBox="0 0 173 173" fill="none" xmlns="http://www.w3.org/2000/svg">
<g filter="url(#filter0_d_75_440)">
<rect y="84.8528" width="120" height="120" rx="32" transform="rotate(-45 0 84.8528)" fill="#011C40"/>
<path d="M48.7403 68.6392V93C48.7403 95.6692 49.4358 97.7181 50.8267 99.1466C52.2177 100.538 54.1726 101.233 56.6914 101.233C59.2478 101.233 61.2214 100.538 62.6124 99.1466C64.0034 97.7181 64.6989 95.6692 64.6989 93V68.6392H72.65V92.9436C72.65 96.2895 71.9169 99.1278 70.4507 101.459C69.0222 103.752 67.0861 105.481 64.6425 106.647C62.2365 107.812 59.5485 108.395 56.5786 108.395C53.6463 108.395 50.9771 107.812 48.5711 106.647C46.2027 105.481 44.323 103.752 42.932 101.459C41.541 99.1278 40.8455 96.2895 40.8455 92.9436V68.6392H48.7403ZM107.063 68.6392V75.0114H96.5747V108H88.68V75.0114H78.1913V68.6392H107.063Z" fill="#FAFAFA"/>
<path d="M48.7403 68.6392H48.9752V68.4042H48.7403V68.6392ZM50.8267 99.1466L50.6584 99.3106L50.6606 99.3128L50.8267 99.1466ZM62.6124 99.1466L62.7786 99.3128L62.7808 99.3105L62.6124 99.1466ZM64.6989 68.6392V68.4042H64.4639V68.6392H64.6989ZM72.65 68.6392H72.8849V68.4042H72.65V68.6392ZM70.4507 101.459L70.2518 101.334L70.2513 101.334L70.4507 101.459ZM64.6425 106.647L64.5413 106.435L64.5401 106.435L64.6425 106.647ZM48.5711 106.647L48.4674 106.857L48.4687 106.858L48.5711 106.647ZM42.932 101.459L42.7302 101.579L42.7311 101.581L42.932 101.459ZM40.8455 68.6392V68.4042H40.6106V68.6392H40.8455ZM48.5053 68.6392V93H48.9752V68.6392H48.5053ZM48.5053 93C48.5053 95.7091 49.2118 97.8249 50.6584 99.3105L50.9951 98.9827C49.6597 97.6112 48.9752 95.6293 48.9752 93H48.5053ZM50.6606 99.3128C52.1071 100.759 54.1286 101.468 56.6914 101.468V100.998C54.2166 100.998 52.3283 100.316 50.9929 98.9805L50.6606 99.3128ZM56.6914 101.468C59.2906 101.468 61.3314 100.76 62.7786 99.3128L62.4463 98.9805C61.1114 100.315 59.2049 100.998 56.6914 100.998V101.468ZM62.7808 99.3105C64.2273 97.8249 64.9338 95.7091 64.9338 93H64.4639C64.4639 95.6293 63.7795 97.6112 62.4441 98.9827L62.7808 99.3105ZM64.9338 93V68.6392H64.4639V93H64.9338ZM64.6989 68.8742H72.65V68.4042H64.6989V68.8742ZM72.415 68.6392V92.9436H72.8849V68.6392H72.415ZM72.415 92.9436C72.415 96.2548 71.6898 99.0476 70.2518 101.334L70.6496 101.584C72.144 99.2081 72.8849 96.3242 72.8849 92.9436H72.415ZM70.2513 101.334C68.8465 103.59 66.9446 105.288 64.5413 106.435L64.7436 106.859C67.2276 105.674 69.1978 103.914 70.6502 101.583L70.2513 101.334ZM64.5401 106.435C62.1694 107.583 59.517 108.16 56.5786 108.16V108.63C59.58 108.63 62.3036 108.041 64.7449 106.858L64.5401 106.435ZM56.5786 108.16C53.6783 108.16 51.0446 107.584 48.6735 106.435L48.4687 106.858C50.9096 108.04 53.6143 108.63 56.5786 108.63V108.16ZM48.6748 106.436C46.3473 105.291 44.501 103.592 43.1329 101.337L42.7311 101.581C44.1449 103.911 46.0581 105.672 48.4674 106.857L48.6748 106.436ZM43.1338 101.338C41.7691 99.0514 41.0805 96.2569 41.0805 92.9436H40.6106C40.6106 96.3221 41.313 99.2042 42.7302 101.579L43.1338 101.338ZM41.0805 92.9436V68.6392H40.6106V92.9436H41.0805ZM40.8455 68.8742H48.7403V68.4042H40.8455V68.8742ZM107.063 68.6392H107.298V68.4042H107.063V68.6392ZM107.063 75.0114V75.2463H107.298V75.0114H107.063ZM96.5747 75.0114V74.7764H96.3397V75.0114H96.5747ZM96.5747 108V108.235H96.8096V108H96.5747ZM88.68 108H88.445V108.235H88.68V108ZM88.68 75.0114H88.9149V74.7764H88.68V75.0114ZM78.1913 75.0114H77.9563V75.2463H78.1913V75.0114ZM78.1913 68.6392V68.4042H77.9563V68.6392H78.1913ZM106.828 68.6392V75.0114H107.298V68.6392H106.828ZM107.063 74.7764H96.5747V75.2463H107.063V74.7764ZM96.3397 75.0114V108H96.8096V75.0114H96.3397ZM96.5747 107.765H88.68V108.235H96.5747V107.765ZM88.9149 108V75.0114H88.445V108H88.9149ZM88.68 74.7764H78.1913V75.2463H88.68V74.7764ZM78.4262 75.0114V68.6392H77.9563V75.0114H78.4262ZM78.1913 68.8742H107.063V68.4042H78.1913V68.8742Z" fill="#FAFAFA"/>
<path d="M120.695 57.0001C122.909 57.0159 124.661 58.8026 124.647 61.0305C124.633 63.2467 122.84 65.0089 120.621 64.9885C118.408 64.9681 116.641 63.17 116.658 60.9575C116.676 58.7482 118.475 56.9846 120.695 57.0001Z" fill="#FAFAFA"/>
<path d="M119.135 113C118.917 112.404 119.004 111.897 119.211 111.399C119.412 110.918 119.741 110.533 120.121 110.185C120.81 109.553 121.615 109.1 122.445 108.689C123.002 108.412 123.585 108.184 124.13 107.887C124.573 107.645 125.023 107.382 125.392 107.043C126.1 106.39 126.161 105.56 125.554 104.816C125.251 104.443 125.039 104.279 124.647 103.992C124.647 103.757 124.647 103.522 124.647 103.287C124.647 102.765 124.647 103.178 124.647 102.583C124.647 102.348 124.647 102.113 124.647 101.878C125.38 102.314 126.103 102.829 126.656 103.489C128.047 105.147 127.779 107.39 126.021 108.649C125.625 108.933 125.185 109.166 124.739 109.362C123.945 109.711 123.129 110.009 122.327 110.338C121.961 110.489 121.597 110.649 121.247 110.832C120.201 111.378 119.718 111.875 119.135 113Z" fill="#BCBCBC"/>
<path d="M116.188 64.5455C116.312 64.6004 116.45 64.638 116.559 64.713C119.125 66.4777 122.31 66.4551 124.863 64.6522C124.937 64.5999 125.031 64.5722 125.116 64.533L125.102 64.5188C125.09 64.6075 125.106 64.7109 125.062 64.7826C124.085 66.4005 122.599 67.2846 120.642 67.2694C118.656 67.2539 117.165 66.3441 116.223 64.6682C116.202 64.6304 116.21 64.5775 116.205 64.5315L116.188 64.5457L116.188 64.5455Z" fill="#FAFAFA"/>
<rect x="116.658" y="67.8083" width="7.9887" height="39.9435" fill="#FAFAFA"/>
<path d="M116.657 83.7855C116.657 84.0205 116.657 84.0205 116.657 84.2555C115.545 83.7723 114.719 83.2205 113.804 82.4099C112.445 81.2058 111.593 79.7157 111.499 77.8892C111.384 75.6483 112.169 73.7779 114.042 72.4478C115.304 71.5518 116.749 71.1294 118.257 70.9047C119.493 70.7206 120.737 70.668 121.987 70.7448C122.322 70.7653 122.665 70.7358 122.997 70.6844C124.147 70.5064 125.164 70.7358 126.042 71.5413C126.759 72.1988 127.396 72.9144 127.841 73.782C128.29 74.6576 128.114 75.0236 127.153 75.2122C126.006 75.4375 124.858 75.3282 123.715 75.1532C123.399 75.1049 123.087 75.0267 122.775 74.9529C122.267 74.8329 121.811 74.6037 121.46 74.215C121.247 73.9786 121.006 73.925 120.707 73.9254C119.682 73.927 118.666 74.0061 117.681 74.2977C117.213 74.4362 116.745 74.6068 116.318 74.8386C114.531 75.8086 114.08 77.9742 115.347 79.5705C115.694 80.007 116.211 80.3888 116.657 80.731C116.657 80.966 116.658 81.0912 116.657 81.4359C116.656 82.3046 116.657 81.6709 116.657 82.6107C116.659 82.6806 116.667 83.721 116.657 83.7855ZM125.51 72.5705C125.501 72.3526 125.313 72.1791 125.102 72.1941C124.9 72.2084 124.706 72.4249 124.74 72.6201C124.776 72.828 124.905 72.9539 125.124 72.9605C125.351 72.9672 125.519 72.7933 125.51 72.5705Z" fill="#BCBCBC"/>
<path d="M124.647 83.3156C125.421 84.3131 127.239 86.023 127.605 87.1996C127.929 88.2447 127.956 89.2647 127.548 90.2937C126.965 91.7661 125.885 92.6861 124.407 93.1742C123.41 93.5035 122.377 93.5896 121.336 93.5984C120.28 93.6075 119.223 93.5778 118.168 93.6045C117.643 93.6177 117.116 93.6936 116.598 93.7871C116.149 93.8682 115.74 94.0646 115.409 94.4009C115.054 94.7608 114.933 95.1902 115.123 95.6461C115.296 96.0593 116.404 96.8093 116.659 97.1784C116.659 97.4133 116.659 97.6483 116.659 97.8833C116.659 98.5881 116.659 99.0581 116.659 99.9979C115.785 99.07 113.466 97.3161 113.081 96.1411C112.637 94.7862 113.091 93.3939 114.254 92.4461C114.869 91.9445 115.582 91.6337 116.35 91.5038C117.165 91.366 117.994 91.2921 118.821 91.2474C119.761 91.1963 120.708 91.2445 121.647 91.1799C122.281 91.1364 122.918 91.0128 123.534 90.8516C124.223 90.6715 124.723 90.2065 125.041 89.5704C125.222 89.2088 125.295 88.8074 125.163 88.4187C125.013 87.9764 124.866 87.4871 124.647 87.075C124.647 86.8401 124.647 85.9002 124.647 85.4303C124.647 84.4904 124.647 84.4904 124.647 83.3156Z" fill="#BCBCBC"/>
</g>
<defs>
<filter id="filter0_d_75_440" x="0" y="0" width="185.705" height="185.706" filterUnits="userSpaceOnUse" color-interpolation-filters="sRGB">
<feFlood flood-opacity="0" result="BackgroundImageFix"/>
<feColorMatrix in="SourceAlpha" type="matrix" values="0 0 0 0 0 0 0 0 0 0 0 0 0 0 0 0 0 0 127 0" result="hardAlpha"/>
<feOffset dx="8" dy="8"/>
<feGaussianBlur stdDeviation="4"/>
<feComposite in2="hardAlpha" operator="out"/>
<feColorMatrix type="matrix" values="0 0 0 0 0 0 0 0 0 0 0 0 0 0 0 0 0 0 0.25 0"/>
<feBlend mode="normal" in2="BackgroundImageFix" result="effect1_dropShadow_75_440"/>
<feBlend mode="normal" in="SourceGraphic" in2="effect1_dropShadow_75_440" result="shape"/>
</filter>
</defs>
</svg>
